<svg width="118" height="118" viewBox="0 0 118 118" fill="none" xmlns="http://www.w3.org/2000/svg">
<path d="M38.7559 0.369848C38.944 0.387465 39.1697 0.409745 39.4064 0.439357C40.4611 0.571327 43.3273 0.976117 45.449 3.39711L45.6518 3.63779L45.6554 3.64195L45.6585 3.64609L45.8489 3.89093L45.8582 3.90338L46.0512 4.16689L46.0543 4.17104C48.0669 6.97528 49.2809 10.4079 50.0578 12.2201C51.9419 16.6149 53.8912 20.7956 56.0329 25.0102C56.0509 24.8153 56.07 24.6199 56.0876 24.424L56.6262 17.8388L56.6267 17.8342L56.6272 17.8285L56.6278 17.8238C56.8705 14.9338 57.0787 11.1648 59.3484 7.17234C59.9242 6.15988 60.679 5.42017 61.1034 5.029C61.6086 4.56343 62.1445 4.14568 62.6242 3.80067C63.5208 3.15572 64.6363 2.46778 65.5897 2.0448L67.5481 1.17594L67.7436 1.08879L67.9449 1.16246L69.9575 1.89541C71.4613 2.443 73.0867 3.2032 74.5665 4.51132C76.0692 5.83974 77.0588 7.40824 77.8115 9.03925C77.9485 9.3349 78.0728 9.63475 78.1843 9.93767L78.7033 11.3403L78.6836 11.4746L78.4845 12.8197C78.4159 13.2831 78.3517 13.6929 78.2922 14.0848L78.2927 14.0854L78.1185 15.266C77.7785 17.7072 77.3764 20.1757 76.9414 22.6474C78.2263 21.143 79.558 19.6567 80.9449 18.2237C81.5281 17.6209 82.5469 16.5198 83.503 15.599C84.4835 14.6547 85.8099 13.4838 87.3699 12.6039L88.5247 11.9524L88.6405 11.8875L88.7727 11.8839L90.0975 11.8517C90.0996 11.8516 90.1049 11.8518 90.1166 11.8512C90.132 11.8505 90.1533 11.8494 90.1793 11.8481C90.2319 11.8455 90.3046 11.842 90.3928 11.8377C90.5697 11.8293 90.8098 11.8184 91.0802 11.8082C91.6182 11.7877 92.287 11.7691 92.8197 11.7786C93.4311 11.7895 94.2762 11.8309 95.1426 11.999C95.7199 12.1112 97.638 12.4973 99.1497 14.1098C99.8732 14.8814 100.802 16.1986 101.421 17.1132C102.022 18.0025 102.925 19.387 103.371 20.3764L104.205 22.2262L104.16 22.4051L103.712 24.1937C103.177 26.3382 102.74 28.2138 101.912 29.937C101.076 31.6787 99.8891 33.1669 98.5755 34.8705C95.9722 38.2471 93.4348 41.3764 91.0828 44.5042C94.4605 43.8379 97.8489 43.2219 101.245 42.656L101.676 42.5761C101.844 42.5434 102.042 42.5043 102.276 42.4573C102.716 42.3693 103.256 42.2608 103.803 42.1617C104.618 42.0138 106.137 41.7463 107.522 41.797H107.531L107.793 41.811L107.802 41.8115L107.812 41.8126L108.093 41.8374L108.098 41.838L108.103 41.8385C109.593 41.998 111.046 42.5506 112.034 43.0134C112.972 43.4524 114.786 44.4019 116.025 46.0116C117.605 48.066 117.673 50.2614 117.435 51.7611L117.272 52.7908L117.237 52.755C117.075 53.4443 116.854 54.1884 116.582 54.8986C116.372 55.45 116.087 56.1007 115.711 56.7487C115.375 57.3277 114.767 58.2519 113.789 59.0476L113.786 59.0518L113.771 59.0625C113.769 59.0646 113.767 59.0667 113.764 59.0688L113.764 59.0683L113.763 59.0694C112.986 59.6956 112.177 60.0265 111.931 60.1275C111.622 60.2549 111.306 60.367 111.011 60.4642C112.212 61.2015 113.235 61.977 114.193 62.949C115.221 63.9917 116.059 65.1608 116.785 66.1493L117.817 67.5538L117.92 67.6935V72.5207L117.859 72.6371L117.244 73.8009C117.164 73.9517 117.006 74.2449 116.811 74.5594C116.714 74.715 116.567 74.9429 116.383 75.1893C116.26 75.3529 115.857 75.8894 115.22 76.3977L115.22 76.3983L115.215 76.4031L115.212 76.4052L115.209 76.4078C114.216 77.1956 112.708 78.021 111.668 78.557C110.799 79.0037 109.65 79.555 108.658 79.9274L108.667 79.9454L108.074 80.1324C108.065 80.1356 108.056 80.1377 108.05 80.1393C108.044 80.1414 108.036 80.1441 108.027 80.1473L107.722 80.2408L107.719 80.2381C107.641 80.2599 107.561 80.2822 107.482 80.3029L106.081 80.6636L105.941 80.6997L104.412 80.261C102.003 79.5694 99.5895 79.0605 96.8078 78.4141L96.7807 78.4082L96.777 78.4072L95.0783 78.0029C95.9287 78.788 96.7786 79.5848 97.6184 80.3948C99.0323 81.7535 101.986 84.2469 104.12 86.6233L104.535 87.0971L104.537 87.0992L104.74 87.3393L104.742 87.343C105.496 88.2503 105.854 89.1995 105.988 89.5676C106.166 90.0595 106.291 90.5317 106.374 90.8785C106.522 91.4941 106.674 92.3276 106.688 92.4009L107.153 94.696L107.199 94.926L105.679 97.0056L105.678 97.0045C105.677 97.0066 105.677 97.0088 105.677 97.0088L105.675 97.0109L105.675 97.0119L105.663 97.0279C105.649 97.0486 105.631 97.0757 105.605 97.1129C105.576 97.1554 105.462 97.3227 105.397 97.4172C105.233 97.6552 104.981 98.0159 104.679 98.3914C104.39 98.7515 103.939 99.2737 103.342 99.7714C102.822 100.204 101.856 100.903 100.487 101.242L100.482 101.243L100.476 101.244L100.22 101.302L100.214 101.303L100.208 101.304C98.6664 101.616 97.4117 101.232 97.0866 101.133C96.5661 100.975 96.1247 100.776 95.8283 100.632C95.2212 100.337 94.6119 99.9711 94.0951 99.6423C94.0537 99.6157 94.0128 99.5887 93.9708 99.5616C94.0138 100.04 94.0393 100.321 94.0738 100.543L94.307 102.025L94.3299 102.173L93.6951 103.697C92.3852 106.839 89.9334 108.929 86.7564 109.539C84.2541 110.019 81.834 109.436 80.5544 109.117L78.9514 108.718L78.8462 108.611L77.7955 107.538C76.0798 105.787 74.3647 103.135 73.5706 102.021L73.5658 102.015L73.561 102.008L73.56 102.006C71.7237 99.4298 69.9352 96.8197 68.1951 94.1781C67.9322 97.0252 67.6602 99.8723 67.3771 102.718L67.3776 102.718C67.213 104.498 67.0727 107.421 66.5623 110.036L66.5618 110.042L66.4555 110.554L66.4539 110.56C66.0077 112.601 64.828 113.991 63.8183 114.838C62.8606 115.642 61.8534 116.131 61.2139 116.414C60.6413 116.667 59.9216 116.934 59.6916 117.022L58.4991 117.92H54.1982L54.0585 117.818L52.6624 116.803C51.3352 115.838 49.9448 114.789 48.8233 113.257C47.7934 111.85 47.1626 110.231 46.642 108.987L46.0268 107.516L45.9656 107.369L46.2914 105.646C46.4923 104.583 46.7362 103.546 46.947 102.649C47.1677 101.71 47.3542 100.915 47.5036 100.138C47.7077 99.0782 47.917 98.035 48.1266 97.0056C46.6654 98.9167 45.0541 100.872 43.1655 102.75L43.1697 102.754L42.7822 103.13C42.4285 103.473 42.102 103.836 41.6991 104.304C41.3431 104.717 40.7954 105.371 40.2348 105.962C38.9407 107.328 37.2707 108.715 34.7363 109.709L32.1318 110.729L29.7042 109.341C28.9838 108.929 27.5274 108.19 27.0473 107.997L22.4576 106.146L23.5272 101.314C23.6457 100.78 23.7101 100.381 23.7861 99.9185C23.8531 99.51 23.9683 98.777 24.201 97.9994C24.747 96.1759 25.7211 94.7667 26.8994 93.2911C27.009 93.1535 27.1176 93.0159 27.2267 92.8789C27.0464 92.9745 26.8689 93.0669 26.694 93.1535L26.3527 93.3224L26.3423 93.3123C25.8516 93.5206 25.4266 93.6369 25.2312 93.6879C24.9077 93.7723 24.5879 93.8393 24.3177 93.8913C23.7757 93.9949 23.175 94.0863 22.6521 94.1617C22.1567 94.2334 21.5389 94.3173 21.1577 94.3715C20.9418 94.4023 20.7619 94.4289 20.6156 94.4517C20.5428 94.4634 20.487 94.4724 20.4455 94.4793C20.4219 94.4836 20.4078 94.4862 20.3988 94.4878C20.3955 94.4884 20.3925 94.4884 20.39 94.4889C20.3953 94.4878 20.4007 94.4868 20.4061 94.4857C20.4089 94.4852 20.412 94.4841 20.4149 94.4836C20.4164 94.483 20.4181 94.483 20.4195 94.4825L20.4216 94.4814C20.4216 94.4814 20.4084 94.4761 20.3843 94.4682L20.3879 94.4889L20.3874 94.4894L20.3879 94.4899L18.0863 94.9558L17.856 95.002L17.6667 94.8634L15.7728 93.4743C14.7129 92.6967 13.2482 91.1839 12.7845 90.682L11.5608 89.3557L11.4384 89.2234L11.4217 89.0439L11.2584 87.2469C11.0074 84.4832 11.1908 81.4003 13.4655 78.7673C14.3721 77.7182 15.4062 77.0017 16.0462 76.5709C16.8655 76.0201 17.251 75.7959 17.9717 75.2807C21.44 72.7985 25.1657 70.5384 28.8965 68.4137C22.4741 68.2108 15.9697 67.9431 9.59584 67.3636C6.91093 67.1198 4.89564 65.9666 3.40075 64.4342C2.76146 63.7787 2.27207 63.1105 1.93951 62.6383C1.46552 61.9653 1.45046 61.9143 1.11162 61.4469L0 59.9129V55.3634L0.0695087 55.2417L0.76356 54.0206C1.61249 52.5276 2.84724 51.5387 3.57141 51.0199C4.40165 50.4251 5.30514 49.928 6.12405 49.583L7.51938 48.9953L7.65637 49.0104L9.02425 49.1592L9.99008 49.2578C12.1897 49.4684 14.0599 49.5519 16.6199 49.7335L27.6604 50.4685C24.2746 48.234 20.837 45.9167 17.6428 43.5098C16.5637 42.6967 15.7083 42.1491 14.7655 41.5195C13.9255 40.9586 12.7194 40.1473 11.664 39.0291C9.12836 36.3424 8.48256 33.0671 8.20932 29.3762L8.06511 27.4294L8.16056 27.2801L9.11965 25.7867C10.185 24.1283 12.0312 22.1998 13.5361 21.0767L14.9486 20.0226L16.7091 19.9256C19.4785 19.773 21.9406 19.9714 24.3862 21.1498C26.3095 22.0767 28.1592 23.6937 29.3561 24.6232L29.3882 24.6481C27.3469 21.47 24.8997 17.6719 24.4484 11.6453L24.34 10.1918L24.393 10.0705L24.9262 8.85663C25.5462 7.44707 26.6308 5.82402 27.6936 4.51858C28.2564 3.82728 28.9203 3.09266 29.6502 2.42969C30.3158 1.82515 31.3421 0.996513 32.6407 0.452844L33.7227 0H38.2013L38.7559 0.369848Z" fill="white"/>
<path d="M34.8981 5.31177H36.434C37.3038 5.89154 39.9795 5.26481 41.177 6.86672C42.7645 8.99029 43.6449 11.5557 44.6889 13.9908C46.9062 19.1631 49.2155 24.0576 51.8129 29.0474L54.9485 35.2097C56.7327 38.6514 58.3523 41.6197 59.233 45.4129C59.2829 45.6276 59.4619 45.7468 59.6415 45.8414L59.7859 45.7731C60.2008 44.0374 60.2826 40.0965 60.477 38.1575C60.937 33.5682 61.5006 29.0013 61.909 24.4104L62.4519 17.7847C62.7074 14.7394 62.8859 12.2439 64.4294 9.52921C64.9335 8.64221 67.0375 7.26377 67.9602 6.8545C70.2575 7.69099 71.4478 8.6582 72.5102 10.9613C72.5814 11.1158 72.6467 11.273 72.7057 11.4327C72.583 12.2627 72.4496 13.0943 72.3338 13.9249C70.9953 23.5353 68.7989 32.9846 67.148 42.5409C67.8013 42.9746 68.657 42.0426 69.0432 41.5538C70.5055 39.7051 71.8643 37.7678 73.3218 35.9144C77.1675 31.1121 80.8602 26.1834 85.1452 21.7559C86.616 20.2358 88.4082 18.1961 90.2418 17.162C91.319 17.1357 94.2166 16.8574 94.889 17.5747C95.6082 18.342 97.6341 21.333 98.0453 22.246C96.8517 27.0207 96.874 26.9797 93.9499 30.7719C88.9176 37.2985 83.3923 43.7619 79.468 51.0266C79.2656 51.4066 79.0208 51.6757 78.9188 52.1128C79.3698 52.722 82.6306 51.7278 83.5628 51.5283C89.7542 50.1403 95.9827 48.9247 102.242 47.8827C103.547 47.6589 106.165 47.0232 107.396 47.1093C108.51 47.1872 110.715 48.1586 111.395 49.0434C111.696 49.4344 111.742 49.8376 111.666 50.315C111.509 51.3162 110.901 53.3424 110.099 53.9883C108.886 54.9662 92.9731 57.9588 90.3746 58.5372C86.8094 59.3653 83.2489 60.2157 79.6943 61.0874C79.0707 61.2356 76.3824 61.677 76.1556 62.0616C77.3263 63.2726 104.049 62.6698 107.39 64.5777C109.805 65.9566 110.459 66.8761 112.079 69.0794V70.5412C111.976 70.7356 111.733 71.177 111.578 71.2997C110.591 72.0826 107.433 73.6868 106.313 74.0304C106.217 74.0607 106.121 74.0883 106.025 74.1138C103.425 73.3676 100.762 72.8034 98.1303 72.1921L89.1269 70.0514C87.4712 69.6632 76.4982 66.7805 75.6388 67.036C75.4986 67.6909 78.7669 70.3972 79.4346 71.05C84.0159 75.5278 88.958 79.6279 93.5712 84.0765C95.6837 86.1066 98.3661 88.2781 100.249 90.5451C100.612 90.9817 100.835 92.3962 100.963 93.0278C100.528 93.6222 99.7955 94.8959 99.054 95.0457C98.0384 95.2502 90.2487 89.052 89.0026 88.0895C86.948 86.5034 76.682 77.2233 75.5235 76.911L75.3934 77.0193C75.3711 77.9744 78.267 81.8971 78.9448 82.9079L85.0368 92.0488C85.7497 93.1154 87.1642 95.093 87.6465 96.1798C88.0226 97.0275 88.1251 99.7853 88.303 100.918C87.0723 103.872 84.5859 103.568 81.9693 102.917C80.678 101.599 79.4282 99.6377 78.3287 98.0967C75.3323 93.8941 72.4645 89.6007 69.7306 85.2222C69.0809 84.1833 64.711 76.5971 64.2818 76.2932C63.7171 76.6518 63.748 78.6272 63.6752 79.3199C63.451 81.3367 63.2497 83.3557 63.0707 85.3768C62.6043 90.8043 62.1008 96.2286 61.5606 101.65C61.3444 103.99 61.2456 106.503 60.7479 108.781C60.3771 110.476 57.4711 110.85 56.5468 111.546H56.0991C53.4336 109.608 53.2929 109.209 52.0339 106.201C52.3807 104.367 52.8907 102.541 53.2429 100.712C54.7159 93.0586 56.593 85.482 57.5662 77.7423C57.7627 76.1822 58.3735 74.5207 58.544 73.0494L58.45 72.9564C58.1876 73.018 58.0554 73.0924 57.878 73.3309C56.4289 75.2829 54.9926 77.2871 53.5675 79.2524L46.5854 88.7439C44.046 92.1784 41.8108 95.4053 38.7172 98.4027C36.5329 100.519 35.6807 102.532 32.6052 103.738C31.7897 103.271 30.0708 102.384 29.2334 102.047C29.8631 99.2021 29.3693 99.0327 31.4666 96.406C37.5349 88.8066 43.4013 81.0403 49.4385 73.4207C49.9617 72.7604 52.5576 70.0376 52.5158 69.4401C52.2387 69.2977 51.8408 69.5681 51.5612 69.7444C49.1537 71.2599 46.7518 72.8502 44.37 74.4028L31.1415 82.9924C29.0494 84.3506 26.2774 86.3101 24.1038 87.3857C23.4671 87.7007 20.2668 88.022 19.2304 88.2318C18.6733 87.8234 17.5452 86.6925 17.079 86.1874C16.6819 81.8158 18.2026 81.7707 21.3737 79.501C29.2828 73.8408 38.1505 69.6472 46.5351 64.7519C47.0944 64.4253 48.1837 63.6986 47.8401 62.9603C47.5693 62.768 47.2554 62.6565 46.9243 62.6405C34.6708 62.0642 22.3492 62.1242 10.1263 61.0136C7.79858 60.8022 7.10386 59.2262 5.84424 57.4877V56.3775C6.30158 55.5733 7.55334 54.7909 8.39382 54.4366C11.1903 54.741 13.4837 54.8371 16.2336 55.032L35.048 56.2851C39.0306 56.565 44.7816 57.613 48.5143 57.2114C46.0149 54.9832 43.352 53.4322 40.6089 51.5316C34.1456 47.0584 27.444 43.047 21.1604 38.3122C16.1684 34.5507 14.5378 35.1745 14.0373 28.4134C14.6993 27.3829 16.0503 25.9608 17.0319 25.2283C21.6299 24.975 22.3705 26.0647 25.7756 28.7085L32.3839 33.8351C36.1899 36.7663 40.1095 39.5504 43.9509 42.4356C44.7278 43.019 46.1523 44.3119 46.9384 44.6466L47.2251 44.5226C47.5772 43.9446 47.2829 43.5569 46.9553 43.0306C46.1157 41.6814 45.3637 40.2684 44.5959 38.8764C41.7201 33.6146 38.7608 28.399 35.7189 23.2315C33.0374 18.6353 30.6976 16.3012 30.2766 10.6781C30.9514 9.1438 33.2602 5.99751 34.8981 5.31177Z" fill="#DA7859"/>
</svg>
