<svg width="122" height="130" viewBox="0 0 122 130" fill="none" xmlns="http://www.w3.org/2000/svg">
<path d="M60.4141 8.98394C59.1771 5.73799 56.8189 3.09029 53.7794 1.531C50.738 -0.0282873 47.3763 -0.313899 44.3137 0.72434C41.251 1.76451 38.8523 4.00695 37.5612 7.03676C36.2702 10.0685 36.2412 13.5248 37.4802 16.7707L45.323 37.3329C43.6151 37.9003 42.0403 38.8748 40.7416 40.2546C38.9681 42.1439 37.9183 44.5562 37.6365 47.1209C36.3184 47.7404 35.12 48.6204 34.1069 49.7358C33.4469 50.4691 32.8911 51.2681 32.4453 52.1172L24.5524 42.9004C19.8745 37.439 12.0317 36.6034 7.06825 41.0381C2.1067 45.4748 1.87705 53.5221 6.55299 58.9854L28.6744 84.814C29.3287 85.5801 30.0639 86.2729 30.8609 86.8731L43.673 96.5492L81.2638 125.421C86.592 129.514 93.6744 128.976 97.7386 124.173L118.241 99.9399C118.339 99.8241 118.436 99.7044 118.529 99.5848C122.471 94.519 121.661 86.8345 116.686 82.0891L112.152 77.7663C111.332 74.4876 110.394 71.0178 109.298 67.2006C107.656 61.5057 105.967 55.9749 104.534 51.3163C104.487 51.1639 104.433 51.0114 104.375 50.8609C102.621 46.3567 98.8792 42.8 94.3673 41.3527C89.8515 39.9034 85.0771 40.7236 81.6208 43.5295C80.7486 44.2262 80.0384 44.9634 79.4382 45.7218L70.6807 35.9048L60.4141 8.98394Z" fill="#5742C2"/>
<path d="M65.6588 38.8799L54.9387 10.7645C53.5956 7.24254 49.8132 5.30115 46.4881 6.43009C43.163 7.55903 41.5574 11.3299 42.9006 14.8518L54.1051 44.2409C54.2016 44.4976 54.3193 44.7446 54.4447 44.9897L53.8619 44.4802C51.1756 42.1432 47.3469 42.205 45.0736 44.6211C43.1843 46.632 42.9044 49.7004 44.2013 52.2342C42.1152 51.8077 39.9615 52.4253 38.5026 54.0367C36.3952 56.3698 36.3663 60.0577 38.4369 62.7343L49.819 77.453L49.514 77.7695L41.8315 71.9666L20.1983 46.7072C17.7397 43.8376 13.6312 43.3995 11.0221 45.7308C8.41682 48.0581 8.28945 52.2786 10.75 55.1502L32.9003 81.0135C33.2438 81.4169 33.6279 81.7797 34.0466 82.0942L46.9185 91.8147L84.5613 120.725C87.3422 122.86 91.0899 122.576 93.2107 120.069L113.738 95.8075C113.792 95.7458 113.844 95.6821 113.893 95.6165C115.957 92.9668 115.55 88.9374 112.926 86.4344L106.907 80.6971C106.874 80.4944 106.851 80.2976 106.808 80.0892C105.861 76.2237 104.817 72.3718 103.715 68.5354C102.194 63.2612 100.59 57.9754 98.9789 52.7418C96.7712 47.07 89.8451 44.8508 85.4625 48.4074C83.8569 49.6927 83.0966 51.2462 82.3536 52.8807C81.8731 53.9769 81.464 55.0209 81.08 56.0726L80.5492 55.567L65.6588 38.8799ZM97.4582 61.3121C97.4775 61.3005 97.4853 61.3121 97.4563 61.3719C97.4197 61.4375 97.3733 61.534 97.1263 61.8293C97.0279 61.9508 96.9005 62.0801 96.7616 62.2114C96.9893 61.8775 97.2189 61.563 97.4582 61.3121Z" fill="#5742C2"/>
<path d="M93.3074 46.9963C90.4146 46.0642 87.4736 46.5641 85.2562 48.3704C83.5985 49.6884 82.8034 51.2593 82.0025 53.0328C81.082 55.1286 80.4066 57.068 79.7948 58.8859C79.1233 60.8582 78.4903 62.8343 77.8901 64.8298L54.5317 44.4895C51.6369 41.9673 47.4435 42.0406 44.9868 44.6478C43.2133 46.5332 42.7135 49.3546 43.6166 51.9309C41.6888 51.8209 39.8014 52.5272 38.4409 54.0286C36.1502 56.5817 36.1097 60.5494 38.3714 63.475L53.4066 82.914C53.615 83.1861 53.9874 83.246 54.2345 83.0491C54.4834 82.8523 54.5143 82.474 54.3039 82.2039L39.2688 62.7649C37.3853 60.3256 37.4026 57.0102 39.3267 54.8912C40.6389 53.4439 42.5417 52.8765 44.4021 53.2354C44.4175 53.2412 44.4329 53.2393 44.4484 53.2432C45.2956 53.413 46.135 53.7777 46.9031 54.3374L70.8714 71.8176C72.1972 72.7845 73.1158 74.199 73.4573 75.8007C73.8008 77.4025 73.5268 79.0004 72.6854 80.3011C72.5966 80.4362 72.504 80.5655 72.4056 80.6909C70.6244 82.9797 67.3514 83.4119 64.7925 81.6963L64.7712 81.7311C64.7655 81.7253 64.7577 81.7195 64.7519 81.7137C64.3293 81.3335 63.4879 80.7179 61.9286 79.5755C60.186 78.2999 57.8606 76.6036 55.5352 74.9073C50.8843 71.5146 46.2296 68.1297 46.2296 68.1297C45.9556 67.929 45.587 67.9811 45.4191 68.2552C45.2454 68.5234 45.3264 68.9036 45.6005 69.1024C49.5238 71.9566 58.4144 78.4311 62.2914 81.2776C61.4983 82.2232 59.8232 84.3537 59.0088 86.4224C58.8892 86.7235 59.0378 87.0844 59.3388 87.231C59.5897 87.3526 59.8676 87.2851 60.0239 87.0863C60.0548 87.0458 60.0818 86.9995 60.1011 86.9493C60.8807 84.9732 62.5828 82.8504 63.2911 82.0109C63.7774 82.3698 64.0881 82.5995 64.1498 82.6516L64.4181 82.3177L64.2058 82.6979C67.2781 84.757 71.2072 84.2379 73.3435 81.4918C73.4612 81.3412 73.5731 81.1849 73.6773 81.0228C74.1212 80.3377 74.4242 79.5813 74.6017 78.7862C76.1166 79.0178 77.6064 78.7456 78.8666 78.0316C79.1059 78.2458 79.3625 78.4369 79.6308 78.6163C81.2634 79.7048 83.1604 80.1004 84.9706 79.7337C86.7885 79.3709 88.3072 78.2806 89.2606 76.6364L92.0665 71.8176C92.3367 71.3487 92.5991 70.8971 92.8597 70.4436C93.9442 70.789 96.6035 71.3371 98.2998 69.1564C98.4947 68.9055 98.4445 68.5215 98.1859 68.3015C97.9254 68.0796 97.5588 68.1047 97.3619 68.3555C96.2253 69.8164 94.4556 69.635 93.4753 69.3861C94.4209 67.7631 95.3279 66.2327 96.2291 64.7834C96.3816 64.548 96.5379 64.2971 96.6826 64.0443C97.1188 63.3419 97.5684 62.6201 98.0142 62.1512C98.2323 61.9235 98.2188 61.5375 97.9737 61.2886C97.7363 61.0454 97.3677 61.0357 97.1438 61.2712C96.617 61.8173 96.1423 62.597 95.681 63.3477C95.5344 63.587 95.3839 63.834 95.2314 64.0694C93.8767 66.2385 92.5316 68.5543 91.0399 71.1383L88.2165 75.9918C87.4388 77.3311 86.1748 78.2342 84.6657 78.5449C83.1488 78.8479 81.5741 78.5179 80.2078 77.609C80.0824 77.5221 79.9647 77.4411 79.8489 77.3407C79.5054 77.0899 79.2024 76.8004 78.9283 76.4878C77.5003 74.8725 76.9078 72.6185 77.4752 70.5574C77.8148 69.3262 78.1603 68.1124 78.5212 66.9178C78.6369 66.5068 78.7508 66.0996 78.882 65.6962C79.515 63.5638 80.1924 61.4661 80.9045 59.3607C81.5085 57.5679 82.1781 55.6516 83.0717 53.6021C83.8397 51.9097 84.546 50.5183 86.0165 49.3469C87.9483 47.7798 90.5072 47.3399 93.0391 48.1484C95.5653 48.9648 97.5703 50.8656 98.5256 53.3203C99.9498 57.9422 101.625 63.4287 103.246 69.0387C104.446 73.2148 105.452 76.9644 106.316 80.4883C106.623 81.9742 106.656 83.383 106.415 84.6586C106.181 85.9381 105.67 87.0921 104.9 88.0802C103.367 90.0486 100.872 91.2045 98.213 91.1736C97.8888 91.1736 97.6417 91.4361 97.6649 91.7719C97.6842 92.1154 97.9621 92.3817 98.2824 92.3894C101.278 92.4203 104.105 91.1138 105.84 88.8849C107.061 87.314 108.341 84.5467 107.461 80.2991C106.584 76.7386 105.577 72.9659 104.367 68.7743C102.744 63.1547 101.075 57.6605 99.6275 52.9884C98.514 50.1111 96.2098 47.9265 93.3074 46.9963ZM76.3482 70.156C75.6843 72.5606 76.3385 75.1813 77.9577 77.1092C76.9947 77.5839 75.885 77.7402 74.7638 77.5781C74.7928 76.9374 74.7464 76.2813 74.6056 75.6232C74.1945 73.7011 73.0926 72.0029 71.5005 70.845L47.5322 53.3647C46.7198 52.7723 45.8436 52.3689 44.9501 52.1393C43.908 49.8525 44.2535 47.2356 45.8591 45.522C47.9047 43.3509 51.3957 43.293 53.8138 45.3985L77.5234 66.0475C77.1201 67.4003 76.7284 68.7646 76.3482 70.156Z" fill="#5742C2"/>
<path d="M70.8623 94.2736C70.623 94.4859 70.6133 94.8661 70.8353 95.1266C71.0572 95.3871 71.4316 95.4296 71.667 95.2192C71.7481 95.1478 79.8398 88.1851 90.5503 97.5601C90.8069 97.784 91.1775 97.7646 91.3762 97.5157C91.3782 97.5118 91.3801 97.5099 91.3801 97.5099C91.575 97.259 91.5268 96.8808 91.272 96.6569C79.7761 86.5949 70.9511 94.1945 70.8623 94.2736Z" fill="#5742C2"/>
<path d="M56.8713 8.74944C55.6806 5.48033 53.3802 2.84421 50.3948 1.32544C47.4075 -0.195253 44.092 -0.415252 41.0603 0.70597C38.0266 1.82526 35.6395 4.15069 34.3349 7.25383C33.0323 10.357 32.9705 13.8654 34.1612 17.1345L41.7049 37.8414C40.0143 38.4532 38.4512 39.476 37.1563 40.904C35.3866 42.8589 34.3291 45.3291 34.0261 47.9382C32.7177 48.5943 31.527 49.511 30.5158 50.667C29.8577 51.4235 29.3019 52.2456 28.8523 53.1178L21.1523 43.928C16.5864 38.4821 8.85555 37.799 3.91329 42.4035C-1.02704 47.0119 -1.33002 55.1847 3.23399 60.6325L24.817 86.384C25.4558 87.1482 26.1756 87.8352 26.9553 88.4277L39.5068 97.9803L76.3315 126.497C81.5498 130.54 88.5473 129.845 92.6037 124.886L113.071 99.8599C113.17 99.7383 113.266 99.6148 113.359 99.4913C117.3 94.2673 116.574 86.4843 111.707 81.7717L107.276 77.4798C106.496 74.1683 105.605 70.6676 104.559 66.8157C102.994 61.0706 101.381 55.4915 100.01 50.7924C99.9641 50.638 99.9139 50.4856 99.8579 50.3331C98.1693 45.798 94.5104 42.2684 90.0699 40.8924C85.6294 39.5165 80.9071 40.4505 77.4701 43.3684C76.6036 44.0959 75.8954 44.8582 75.2952 45.6417L66.7461 35.8614L56.8713 8.74944Z" fill="white"/>
<path d="M61.7602 38.9674L51.4453 10.6357C50.1523 7.08678 46.4355 5.19556 43.1413 6.41134C39.8452 7.62906 38.2241 11.4926 39.5152 15.0396L50.297 44.6526C50.3916 44.9112 50.5035 45.1602 50.627 45.4053L50.0558 44.9016C47.4255 42.5839 43.643 42.7267 41.3755 45.2296C39.4882 47.31 39.1832 50.4324 40.4396 52.9779C38.3843 52.59 36.2519 53.2615 34.7948 54.9289C32.6913 57.3431 32.6277 61.0889 34.6462 63.7636L45.7446 78.4746L45.4397 78.8008L37.9076 73.0692L16.7897 47.8696C14.387 45.0039 10.3344 44.6449 7.73497 47.0688C5.13937 49.4868 4.97533 53.7768 7.37602 56.6407L29.0015 82.4443C29.3373 82.8457 29.7136 83.2065 30.1247 83.5172L42.7418 93.12L79.638 121.693C82.3648 123.804 86.0681 123.437 88.1851 120.846L108.693 95.7774C108.747 95.7118 108.797 95.6461 108.848 95.5786C110.911 92.844 110.548 88.7606 107.981 86.273L102.091 80.5723C102.062 80.3678 102.039 80.1671 102.001 79.9586C101.103 76.0527 100.108 72.1622 99.0558 68.289C97.6045 62.9627 96.0723 57.6287 94.5323 52.3468C92.4056 46.6326 85.5876 44.5253 81.2243 48.2266C79.6264 49.5679 78.8602 51.16 78.1115 52.837C77.6271 53.9582 77.2122 55.0293 76.8224 56.1042L76.3052 55.6024L61.7602 38.9674ZM92.9479 61.0831C92.9672 61.0696 92.9749 61.0812 92.944 61.1429C92.9074 61.2124 92.863 61.3108 92.614 61.6157C92.5176 61.7412 92.3902 61.8763 92.2512 62.0113C92.477 61.6659 92.7086 61.3417 92.9479 61.0831Z" fill="#F8B8A2"/>
<path d="M89.03 46.5113C86.2124 45.6526 83.3293 46.2547 81.1332 48.1671C79.4948 49.5662 78.6939 51.1931 77.8853 53.0283C76.9551 55.1955 76.2681 57.1967 75.6448 59.0687C74.9597 61.1027 74.3132 63.1386 73.6995 65.1958L51.1226 45.1798C48.3244 42.698 44.2216 42.9045 41.7804 45.6429C40.0204 47.6229 39.4917 50.5176 40.3408 53.1171C38.4573 53.065 36.5989 53.8466 35.2461 55.4213C32.9708 58.098 32.8763 62.1486 35.0492 65.0607L49.4939 84.4207C49.6946 84.6908 50.0574 84.7391 50.3025 84.5307C50.5495 84.3223 50.5823 83.9344 50.3816 83.6661L35.9369 64.3062C34.1268 61.8785 34.1905 58.4955 36.1029 56.2724C37.4075 54.7536 39.2775 54.1167 41.0915 54.4236C41.1069 54.4274 41.1204 54.4255 41.1359 54.4294C41.9638 54.576 42.7801 54.9215 43.523 55.4695L66.7368 72.5465C68.0201 73.4902 68.8982 74.9047 69.2127 76.5277C69.5253 78.1526 69.2339 79.791 68.3925 81.1438C68.3057 81.2847 68.2131 81.4198 68.1146 81.551C66.3411 83.9421 63.1319 84.4863 60.6521 82.817L60.6308 82.8537C60.6231 82.8479 60.6173 82.8421 60.6115 82.8363C60.2024 82.4619 59.388 81.8617 57.8789 80.7444C56.1923 79.4977 53.9382 77.84 51.6861 76.1823C47.182 72.8688 42.6739 69.5611 42.6739 69.5611C42.4095 69.3662 42.0487 69.4298 41.8788 69.7155C41.7052 69.9953 41.7804 70.3793 42.0467 70.5742C45.8446 73.3628 54.4554 79.6868 58.2108 82.4677C57.4196 83.4596 55.7542 85.6847 54.9263 87.821C54.8047 88.1317 54.9456 88.4964 55.2389 88.6373C55.484 88.7531 55.7561 88.6759 55.9105 88.4675C55.9414 88.425 55.9684 88.3768 55.9896 88.3247C56.7789 86.2849 58.4733 84.0637 59.1777 83.1856C59.6505 83.5368 59.9496 83.7626 60.0114 83.8128L60.2757 83.4635L60.0654 83.8572C63.0431 85.8622 66.8931 85.208 69.0217 82.3384C69.1394 82.1821 69.2494 82.018 69.3555 81.8482C69.7974 81.1361 70.1062 80.3545 70.2895 79.5382C71.7697 79.7274 73.2306 79.4012 74.4734 78.6331C74.705 78.8435 74.9539 79.0307 75.2125 79.2063C76.7949 80.2638 78.6456 80.6093 80.423 80.177C82.2061 79.7486 83.7075 78.5888 84.6628 76.8809L87.4745 71.8769C87.7466 71.3886 88.0091 70.9197 88.2715 70.4507C89.3252 70.7672 91.9208 71.2419 93.6113 68.9648C93.8062 68.7023 93.7619 68.3125 93.511 68.0944C93.2601 67.8783 92.8992 67.9149 92.7043 68.1774C91.5715 69.7039 89.8424 69.5746 88.8872 69.3527C89.8347 67.6641 90.7436 66.0758 91.6449 64.5686C91.7973 64.3235 91.9536 64.0611 92.0984 63.8006C92.5345 63.0692 92.9861 62.3185 93.428 61.8264C93.6441 61.5871 93.6364 61.1934 93.401 60.9464C93.1713 60.7071 92.8105 60.709 92.5885 60.956C92.0656 61.5292 91.5908 62.3397 91.1277 63.1193C90.9829 63.3683 90.8305 63.625 90.678 63.87C89.3233 66.1279 87.9763 68.5325 86.4788 71.2149L83.6516 76.2556C82.87 77.647 81.6233 78.61 80.1393 78.9728C78.6514 79.3317 77.1153 79.0442 75.7914 78.1603C75.6718 78.0754 75.556 77.9963 75.4441 77.8979C75.1121 77.6509 74.8188 77.3653 74.5544 77.0565C73.1804 75.4547 72.6304 73.1737 73.2151 71.0509C73.5644 69.7849 73.9195 68.5344 74.2881 67.3051C74.4078 66.8806 74.5255 66.4618 74.6567 66.0488C75.3071 63.8507 75.9979 61.6913 76.7255 59.5202C77.3411 57.6695 78.0204 55.6934 78.9235 53.5745C79.6993 51.8241 80.4095 50.3825 81.8646 49.1417C83.777 47.4801 86.2858 46.9513 88.7521 47.6962C91.2126 48.4489 93.1501 50.3247 94.0513 52.8006C95.381 57.4708 96.9422 63.0171 98.4513 68.6888C99.5706 72.9112 100.501 76.7053 101.3 80.2735C101.58 81.7787 101.591 83.2145 101.338 84.5249C101.091 85.8372 100.576 87.0298 99.808 88.0642C98.2815 90.1213 95.8248 91.3777 93.2234 91.4317C92.905 91.4413 92.6619 91.7173 92.6792 92.0589C92.6927 92.4082 92.961 92.6726 93.2756 92.6687C96.205 92.605 98.9878 91.1827 100.717 88.8554C101.935 87.2131 103.226 84.3512 102.421 80.0438C101.612 76.4389 100.678 72.6198 99.5532 68.382C98.0422 62.7006 96.4848 57.1466 95.134 52.4262C94.0822 49.5257 91.8591 47.3701 89.03 46.5113ZM72.1171 70.6765C71.4359 73.1525 72.038 75.806 73.5972 77.7203C72.6478 78.2356 71.5594 78.4305 70.4652 78.3012C70.5018 77.6451 70.4652 76.9774 70.3359 76.3116C69.9615 74.3625 68.9059 72.6662 67.3659 71.5333L44.1522 54.4545C43.3667 53.8755 42.5138 53.4934 41.6415 53.2869C40.6534 50.9866 41.0278 48.3061 42.6237 46.5075C44.6558 44.2284 48.0716 44.0585 50.4086 46.1292L73.3232 66.4483C72.9102 67.8416 72.5088 69.2446 72.1171 70.6765Z" fill="#D8846D"/>
<path d="M66.9104 95.0275C66.6731 95.2513 66.6576 95.6411 66.8718 95.8997C67.086 96.1603 67.4508 96.1892 67.6862 95.9673C67.7673 95.892 75.7895 88.524 86.1545 97.7639C86.4035 97.9859 86.7663 97.955 86.965 97.6925L86.9689 97.6867C87.1619 97.4262 87.1213 97.0403 86.8743 96.8203C75.749 86.901 66.9973 94.9445 66.9104 95.0275Z" fill="#D8846D"/>
</svg>
