<svg width="352" height="55" viewBox="0 0 352 55" fill="none" xmlns="http://www.w3.org/2000/svg">
<path d="M1.39258 0.544922C2.76497 0.746745 3.97591 0.888021 5.02539 0.96875C6.11523 1.04948 7.02344 1.13021 7.75 1.21094C8.59766 1.29167 9.32422 1.33203 9.92969 1.33203H12.291C13.8652 1.33203 16.4688 1.27148 20.1016 1.15039C19.2135 1.43294 18.4668 1.83659 17.8613 2.36133C17.2962 2.88607 16.832 3.43099 16.4688 3.99609C16.0247 4.64193 15.7018 5.30794 15.5 5.99414C15.2578 6.8418 15.0358 7.97201 14.834 9.38477C14.6322 10.6361 14.4303 12.2708 14.2285 14.2891C14.0671 16.3073 13.9056 18.8301 13.7441 21.8574C15.4798 19.8796 16.9935 18.1237 18.2852 16.5898C19.6172 15.056 20.7676 13.7038 21.7363 12.5332C22.7051 11.3626 23.5124 10.3535 24.1582 9.50586C24.8444 8.6582 25.4095 7.93164 25.8535 7.32617C26.903 5.95378 27.5085 5.02539 27.6699 4.54102C27.7103 4.25846 27.6901 3.91536 27.6094 3.51172C27.5286 3.1888 27.4076 2.80534 27.2461 2.36133C27.0846 1.87695 26.8424 1.35221 26.5195 0.787109C28.1341 0.867839 29.5065 0.928385 30.6367 0.96875C31.8073 1.00911 32.776 1.04948 33.543 1.08984C34.431 1.13021 35.1576 1.15039 35.7227 1.15039H38.2656C39.194 1.15039 40.4049 1.15039 41.8984 1.15039C43.3919 1.11003 45.2689 1.06966 47.5293 1.0293C46.0358 1.39258 44.623 1.87695 43.291 2.48242C41.959 3.08789 40.7682 3.67318 39.7188 4.23828C38.5078 4.92448 37.3776 5.63086 36.3281 6.35742C35.2786 7.16471 34.1081 8.11328 32.8164 9.20312C31.7266 10.1315 30.4551 11.2819 29.002 12.6543C27.5488 13.9863 25.9746 15.5404 24.2793 17.3164C26.0957 20.8685 27.6699 23.7949 29.002 26.0957C30.3743 28.3561 31.5247 30.1725 32.4531 31.5449C33.5026 33.1595 34.3906 34.3906 35.1172 35.2383C35.8438 36.0052 36.6914 36.7923 37.6602 37.5996C38.4674 38.2858 39.4766 39.0527 40.6875 39.9004C41.8984 40.7077 43.291 41.4948 44.8652 42.2617L27.6094 43.1094C27.8516 42.7865 27.9928 42.403 28.0332 41.959C28.1139 41.4746 28.1543 41.0306 28.1543 40.627C28.1543 40.1829 28.1139 39.6986 28.0332 39.1738C27.8717 38.528 27.4479 37.4785 26.7617 36.0254C26.1966 34.7741 25.3288 33.0182 24.1582 30.7578C22.9876 28.457 21.373 25.4297 19.3145 21.6758L14.168 27.0645C13.9661 28.3561 13.8652 29.5267 13.8652 30.5762C13.8652 31.6257 13.9056 32.4935 13.9863 33.1797C14.1074 34.0273 14.2689 34.7539 14.4707 35.3594C14.7129 35.9648 15.056 36.651 15.5 37.418C15.8633 38.1042 16.3477 38.9115 16.9531 39.8398C17.5586 40.7682 18.3255 41.7975 19.2539 42.9277C18.3255 42.6855 17.3971 42.5241 16.4688 42.4434C15.5404 42.3223 14.6927 42.2415 13.9258 42.2012C13.0378 42.1608 12.1901 42.181 11.3828 42.2617C10.5352 42.3424 9.54622 42.4635 8.41602 42.625C7.44727 42.7865 6.25651 42.9883 4.84375 43.2305C3.43099 43.4727 1.81641 43.7754 0 44.1387C0.888021 43.6139 1.5944 43.0488 2.11914 42.4434C2.64388 41.8379 3.06771 41.2526 3.39062 40.6875C3.75391 40.0417 3.99609 39.416 4.11719 38.8105C4.19792 38.2858 4.25846 37.1556 4.29883 35.4199C4.37956 33.6842 4.41992 31.666 4.41992 29.3652C4.46029 27.0241 4.46029 24.5618 4.41992 21.9785C4.37956 19.3952 4.33919 16.9733 4.29883 14.7129C4.25846 12.4525 4.19792 10.5352 4.11719 8.96094C4.07682 7.34635 4.03646 6.35742 3.99609 5.99414C3.875 5.42904 3.71354 4.82357 3.51172 4.17773C3.3099 3.61263 3.02734 3.02734 2.66406 2.42188C2.34115 1.77604 1.91732 1.15039 1.39258 0.544922ZM54.5527 34.0273C55.6829 34.0273 56.7324 33.9062 57.7012 33.6641C58.5085 33.4622 59.2754 33.1393 60.002 32.6953C60.7689 32.2109 61.2734 31.5046 61.5156 30.5762C62.3229 30.7376 63.0091 30.8789 63.5742 31C64.1393 31.0807 64.6237 31.1615 65.0273 31.2422C65.4714 31.3633 65.8548 31.444 66.1777 31.4844C66.5007 31.5651 66.8841 31.6458 67.3281 31.7266C67.7318 31.8073 68.2161 31.9082 68.7812 32.0293C69.3867 32.11 70.0931 32.2311 70.9004 32.3926C70.2949 32.3118 69.6693 32.3724 69.0234 32.5742C68.418 32.776 67.8327 32.998 67.2676 33.2402C66.6217 33.5228 66.0163 33.8659 65.4512 34.2695C65.0879 34.5117 64.6641 34.875 64.1797 35.3594C63.7357 35.8438 63.0898 36.3079 62.2422 36.752C61.3945 37.196 60.2643 37.5794 58.8516 37.9023C57.4792 38.1849 55.7031 38.2858 53.5234 38.2051C50.8997 38.1243 48.6999 37.6602 46.9238 36.8125C45.1478 35.9245 43.7148 34.8548 42.625 33.6035C41.5352 32.3118 40.748 30.9193 40.2637 29.4258C39.7793 27.9323 39.5169 26.5397 39.4766 25.248C39.4362 23.9564 39.8197 22.6042 40.627 21.1914C41.4342 19.7786 42.5645 18.487 44.0176 17.3164C45.5111 16.1458 47.3073 15.1973 49.4062 14.4707C51.5052 13.7038 53.806 13.3203 56.3086 13.3203C57.7617 13.3203 59.0938 13.502 60.3047 13.8652C61.556 14.1882 62.6862 14.6322 63.6953 15.1973C64.7448 15.7624 65.653 16.4082 66.4199 17.1348C67.1868 17.821 67.8327 18.5273 68.3574 19.2539C68.8822 20.0208 69.3262 20.8281 69.6895 21.6758C70.0124 22.4023 70.2747 23.2298 70.4766 24.1582C70.6784 25.0866 70.7389 26.0352 70.6582 27.0039C67.5905 27.0846 65.1081 27.1452 63.2109 27.1855C61.3542 27.2259 59.901 27.2461 58.8516 27.2461H56.127H54.0684C53.3418 27.2461 52.3932 27.2663 51.2227 27.3066C50.0521 27.347 48.6191 27.4076 46.9238 27.4883C47.1257 29.1029 47.6302 30.3542 48.4375 31.2422C49.2852 32.0898 50.1732 32.7357 51.1016 33.1797C52.151 33.6641 53.3014 33.9466 54.5527 34.0273ZM49.1035 23.1289C50.3952 23.2096 51.4648 23.2702 52.3125 23.3105C53.2005 23.3509 53.9271 23.3913 54.4922 23.4316C55.0977 23.472 55.582 23.4922 55.9453 23.4922H57.459C58.4681 23.4922 60.3451 23.4316 63.0898 23.3105C62.9688 21.5345 62.5853 20.1823 61.9395 19.2539C61.334 18.3255 60.6882 17.6393 60.002 17.1953C59.1947 16.7109 58.3066 16.4284 57.3379 16.3477C54.7142 16.388 52.7565 16.9329 51.4648 17.9824C50.2135 19.0319 49.4264 20.7474 49.1035 23.1289ZM72.3535 5.63086C73.5645 5.75195 74.5736 5.85286 75.3809 5.93359C76.2285 6.01432 76.9147 6.07487 77.4395 6.11523C78.0449 6.1556 78.5293 6.17578 78.8926 6.17578C79.2559 6.21615 79.7402 6.21615 80.3457 6.17578C80.8704 6.13542 81.5566 6.09505 82.4043 6.05469C83.252 5.97396 84.3216 5.85286 85.6133 5.69141C85.3307 6.09505 85.1087 6.45833 84.9473 6.78125C84.7858 7.0638 84.6445 7.32617 84.5234 7.56836L84.1602 8.29492C84.0794 8.53711 83.9987 8.7793 83.918 9.02148C83.8372 9.22331 83.7565 9.46549 83.6758 9.74805C83.6354 10.0306 83.5951 10.3333 83.5547 10.6562H92.8789L92.0312 15.5605L83.4941 15.0762C83.2923 17.1348 83.151 18.7292 83.0703 19.8594C82.9896 20.9896 82.9089 21.8171 82.8281 22.3418L82.707 23.4316C82.5859 24.9655 82.4648 26.6406 82.3438 28.457C82.2227 30.2331 82.1823 31.888 82.2227 33.4219C82.263 34.9557 82.4043 36.2474 82.6465 37.2969C82.8887 38.306 83.3125 38.8105 83.918 38.8105C84.5234 38.8105 85.0885 38.6491 85.6133 38.3262C86.138 38.0033 86.582 37.6198 86.9453 37.1758C87.349 36.7318 87.6517 36.2878 87.8535 35.8438C88.0553 35.3594 88.1562 34.9961 88.1562 34.7539C88.1562 34.5117 88.0957 34.2292 87.9746 33.9062C87.7728 33.3008 87.4095 32.5339 86.8848 31.6055C88.0553 31.888 89.0846 32.1706 89.9727 32.4531C90.4167 32.6146 90.8203 32.776 91.1836 32.9375C91.5872 33.099 92.0514 33.2806 92.5762 33.4824C93.0202 33.6842 93.5853 33.9264 94.2715 34.209C94.9577 34.4915 95.765 34.8346 96.6934 35.2383C95.8053 35.3997 95.1595 35.6621 94.7559 36.0254C94.5137 36.1868 94.332 36.3685 94.2109 36.5703C93.9284 37.0143 93.6055 37.6198 93.2422 38.3867C92.8789 39.1133 92.334 39.8398 91.6074 40.5664C90.8809 41.293 89.8919 41.9388 88.6406 42.5039C87.4297 43.069 85.7949 43.3919 83.7363 43.4727C81.597 43.5534 79.9622 43.1901 78.832 42.3828C77.7422 41.5755 76.9349 40.6471 76.4102 39.5977C75.9258 38.5078 75.6432 37.4382 75.5625 36.3887C75.4818 35.3392 75.4212 34.6328 75.3809 34.2695C75.3405 33.9062 75.3405 32.998 75.3809 31.5449C75.4212 30.0918 75.4818 28.4974 75.5625 26.7617C75.6432 24.9857 75.724 23.2904 75.8047 21.6758C75.8854 20.0208 75.9258 18.8099 75.9258 18.043C75.9258 17.6393 75.946 17.2155 75.9863 16.7715C75.9863 16.4082 75.9863 16.0247 75.9863 15.6211C76.0267 15.1771 76.0469 14.7533 76.0469 14.3496L67.2676 14.2891L66.9043 10.8379L75.7441 11.0801C75.6634 10.6361 75.5625 10.2324 75.4414 9.86914C75.3607 9.46549 75.2799 9.14258 75.1992 8.90039C75.0781 8.61784 74.957 8.37565 74.8359 8.17383C74.6745 7.97201 74.4928 7.75 74.291 7.50781C74.0892 7.30599 73.8268 7.04362 73.5039 6.7207C73.181 6.39779 72.7975 6.03451 72.3535 5.63086ZM98.752 19.2539C98.9538 19.0117 99.0749 18.5677 99.1152 17.9219C99.196 17.2357 99.3574 16.4688 99.5996 15.6211C99.8822 14.7734 100.346 13.8854 100.992 12.957C101.638 12.0286 102.688 11.1608 104.141 10.3535C105.553 9.54622 106.926 9.06185 108.258 8.90039C109.59 8.73893 110.861 8.79948 112.072 9.08203C113.283 9.36458 114.413 9.80859 115.463 10.4141C116.553 11.0195 117.542 11.6855 118.43 12.4121C119.035 12.8965 119.52 13.6029 119.883 14.5312C120.246 15.4193 120.529 16.4284 120.73 17.5586C120.932 18.6888 121.074 19.8796 121.154 21.1309C121.275 22.3418 121.356 23.5326 121.396 24.7031C121.437 25.8333 121.457 26.8828 121.457 27.8516C121.497 28.7799 121.578 29.5469 121.699 30.1523C121.861 31.0404 122.143 31.8073 122.547 32.4531C122.951 33.0586 123.395 33.5833 123.879 34.0273C124.363 34.431 124.848 34.7539 125.332 34.9961C125.816 35.2383 126.24 35.4199 126.604 35.541C126.846 35.6621 127.068 35.7428 127.27 35.7832C127.673 35.9447 127.956 35.9447 128.117 35.7832C127.875 36.3483 127.653 36.8327 127.451 37.2363C127.249 37.64 127.088 37.9831 126.967 38.2656C126.805 38.5885 126.664 38.8509 126.543 39.0527C126.422 39.2949 126.281 39.5169 126.119 39.7188C125.998 39.9206 125.837 40.1426 125.635 40.3848C125.433 40.627 125.231 40.8893 125.029 41.1719C124.505 40.9701 124 40.7279 123.516 40.4453C123.072 40.1628 122.668 39.9004 122.305 39.6582C121.861 39.3757 121.457 39.0931 121.094 38.8105C120.73 38.528 120.387 38.2051 120.064 37.8418C119.782 37.5189 119.479 37.1758 119.156 36.8125C118.874 36.4492 118.632 36.0456 118.43 35.6016C118.188 36.1263 117.602 36.873 116.674 37.8418C115.786 38.8105 114.615 39.6986 113.162 40.5059C111.709 41.2728 110.014 41.8177 108.076 42.1406C106.179 42.4635 104.08 42.2415 101.779 41.4746C100.77 41.1517 99.8216 40.6875 98.9336 40.082C98.0456 39.4362 97.2786 38.6693 96.6328 37.7812C96.0273 36.8932 95.5833 35.8841 95.3008 34.7539C95.0586 33.5833 95.0788 32.2917 95.3613 30.8789C95.6439 29.4661 96.1484 28.2754 96.875 27.3066C97.6016 26.3379 98.4694 25.5508 99.4785 24.9453C100.488 24.3398 101.618 23.8757 102.869 23.5527C104.12 23.2298 105.412 23.0078 106.744 22.8867C107.794 22.8464 108.843 22.9069 109.893 23.0684C110.781 23.2298 111.709 23.5326 112.678 23.9766C113.646 24.3802 114.474 25.0059 115.16 25.8535C115.12 23.7142 115.039 22.0189 114.918 20.7676C114.837 19.4759 114.757 18.487 114.676 17.8008C114.514 16.9935 114.373 16.4284 114.252 16.1055C114.05 15.8229 113.828 15.5 113.586 15.1367C113.384 14.7734 113.122 14.4505 112.799 14.168C112.476 13.8451 112.072 13.5827 111.588 13.3809C111.104 13.179 110.538 13.0983 109.893 13.1387C109.206 13.179 108.661 13.3607 108.258 13.6836C107.854 14.0065 107.531 14.39 107.289 14.834C107.087 15.2376 106.966 15.6816 106.926 16.166C106.885 16.6504 106.906 17.0742 106.986 17.4375C107.067 17.6797 107.188 17.9421 107.35 18.2246C107.511 18.4668 107.733 18.7292 108.016 19.0117C108.298 19.2943 108.682 19.5365 109.166 19.7383C108.238 19.8594 107.41 19.9603 106.684 20.041C105.957 20.0814 105.331 20.1419 104.807 20.2227C104.201 20.3034 103.676 20.3639 103.232 20.4043C102.788 20.4447 102.264 20.5254 101.658 20.6465C101.133 20.7272 100.488 20.8281 99.7207 20.9492C98.9538 21.0703 98.0658 21.2318 97.0566 21.4336C97.2988 21.151 97.5208 20.8887 97.7227 20.6465C97.9245 20.3639 98.1061 20.1217 98.2676 19.9199C98.429 19.6777 98.5905 19.4557 98.752 19.2539ZM107.834 26.459C107.107 26.4993 106.381 26.681 105.654 27.0039C104.928 27.2865 104.282 27.7103 103.717 28.2754C103.152 28.8001 102.667 29.4258 102.264 30.1523C101.9 30.8385 101.719 31.6055 101.719 32.4531C101.719 33.3008 101.921 34.0475 102.324 34.6934C102.768 35.2988 103.333 35.8034 104.02 36.207C104.746 36.6107 105.513 36.8529 106.32 36.9336C107.168 37.0143 107.995 36.9336 108.803 36.6914C109.57 36.4089 110.296 35.9648 110.982 35.3594C111.669 34.7135 112.254 34.0273 112.738 33.3008C113.223 32.5339 113.566 31.7871 113.768 31.0605C113.969 30.2936 113.99 29.668 113.828 29.1836C113.505 28.1341 112.779 27.4076 111.648 27.0039C110.518 26.5599 109.247 26.3783 107.834 26.459ZM129.389 37.1152C129.671 35.7832 129.873 34.6126 129.994 33.6035C130.156 32.554 130.277 31.6862 130.357 31C130.438 30.1927 130.479 29.5065 130.479 28.9414C130.438 28.2552 130.398 27.4479 130.357 26.5195C130.357 25.5508 130.317 24.6022 130.236 23.6738C130.196 22.7051 130.135 21.8574 130.055 21.1309C129.974 20.3639 129.873 19.819 129.752 19.4961C129.59 19.1732 129.368 18.8301 129.086 18.4668C128.521 17.7806 127.693 17.1146 126.604 16.4688C127.532 16.2669 128.319 16.1055 128.965 15.9844C129.651 15.8229 130.216 15.6816 130.66 15.5605C131.145 15.3991 131.568 15.2578 131.932 15.1367C132.255 15.0156 132.638 14.8945 133.082 14.7734C133.445 14.6927 133.889 14.5918 134.414 14.4707C134.939 14.3496 135.544 14.2083 136.23 14.0469L136.049 19.5566C137.34 18.0228 138.652 16.8724 139.984 16.1055C141.316 15.3385 142.568 14.7936 143.738 14.4707C145.07 14.0671 146.382 13.8652 147.674 13.8652C149.288 13.946 150.782 14.2083 152.154 14.6523C153.567 15.0964 154.778 15.6211 155.787 16.2266C156.837 16.7917 157.684 17.3971 158.33 18.043C158.976 18.6888 159.359 19.2539 159.48 19.7383C159.965 21.3125 160.086 22.7656 159.844 24.0977C159.602 25.3893 159.279 26.6608 158.875 27.9121C158.512 29.123 158.189 30.334 157.906 31.5449C157.664 32.7559 157.765 34.0677 158.209 35.4805C158.37 35.8438 158.532 36.207 158.693 36.5703C158.855 36.8932 159.057 37.2161 159.299 37.5391C159.541 37.862 159.824 38.1243 160.146 38.3262C159.702 38.2858 159.258 38.2656 158.814 38.2656C158.37 38.2253 157.967 38.1849 157.604 38.1445C157.16 38.1042 156.756 38.0638 156.393 38.0234C155.989 37.9831 155.444 37.9629 154.758 37.9629C153.587 37.9629 151.771 38.0234 149.309 38.1445C149.672 37.2969 149.954 36.5905 150.156 36.0254C150.398 35.4199 150.6 34.9355 150.762 34.5723C150.923 34.1283 151.044 33.7852 151.125 33.543C151.609 32.3724 151.892 31.0404 151.973 29.5469C152.094 28.0534 151.993 26.5397 151.67 25.0059C151.549 24.4811 151.347 23.8555 151.064 23.1289C150.782 22.4023 150.398 21.696 149.914 21.0098C149.47 20.3236 148.925 19.7383 148.279 19.2539C147.674 18.7695 146.967 18.487 146.16 18.4062C145.353 18.3255 144.445 18.5273 143.436 19.0117C142.467 19.4961 141.417 20.3841 140.287 21.6758C139.439 22.7656 138.773 24.0977 138.289 25.6719C137.845 27.0039 137.542 28.679 137.381 30.6973C137.219 32.6751 137.462 34.9961 138.107 37.6602C137.542 37.5794 137.018 37.5391 136.533 37.5391C136.049 37.4987 135.645 37.4583 135.322 37.418C134.919 37.3776 134.555 37.3372 134.232 37.2969C133.869 37.2969 133.465 37.2767 133.021 37.2363C132.618 37.2363 132.113 37.2363 131.508 37.2363C130.902 37.196 130.196 37.1556 129.389 37.1152ZM206.465 0.0605469C209.048 0.0201823 211.167 0.484375 212.822 1.45312C214.518 2.42188 215.89 3.57227 216.939 4.9043C217.989 6.23633 218.796 7.58854 219.361 8.96094C219.926 10.293 220.37 11.3424 220.693 12.1094C220.774 12.3112 220.936 12.5736 221.178 12.8965C221.38 13.179 221.662 13.5221 222.025 13.9258C222.429 14.2891 222.934 14.7129 223.539 15.1973C222.288 15.2376 221.178 15.278 220.209 15.3184C219.24 15.3184 218.413 15.3385 217.727 15.3789C216.96 15.4193 216.273 15.4596 215.668 15.5C215.062 15.5404 214.316 15.6009 213.428 15.6816C212.62 15.7624 211.632 15.8431 210.461 15.9238C209.29 16.0046 207.857 16.1257 206.162 16.2871C207.171 15.0762 207.958 14.0065 208.523 13.0781C209.129 12.1094 209.573 11.2617 209.855 10.5352C210.178 9.76823 210.36 9.10221 210.4 8.53711C210.481 7.97201 210.461 7.48763 210.34 7.08398C210.098 6.1556 209.472 5.48958 208.463 5.08594C205.557 4.27865 203.014 4.92448 200.834 7.02344C198.695 9.08203 197.161 12.4727 196.232 17.1953C195.788 19.5365 195.365 21.9785 194.961 24.5215C194.598 27.0241 194.456 29.3249 194.537 31.4238C194.618 33.4824 195.021 35.1576 195.748 36.4492C196.475 37.7409 197.726 38.3464 199.502 38.2656C201.238 38.1849 202.711 37.9023 203.922 37.418C205.133 36.8932 206.102 36.2878 206.828 35.6016C207.555 34.875 208.059 34.1081 208.342 33.3008C208.665 32.4531 208.786 31.666 208.705 30.9395C208.544 30.3743 208.12 29.7689 207.434 29.123C206.828 28.5579 205.92 27.9323 204.709 27.2461C203.498 26.5195 201.762 25.7728 199.502 25.0059C201.641 24.8848 203.397 24.804 204.77 24.7637C206.182 24.6829 207.292 24.6022 208.1 24.5215C209.068 24.4408 209.815 24.3802 210.34 24.3398C210.824 24.2995 211.531 24.2591 212.459 24.2188C213.266 24.1784 214.296 24.1582 215.547 24.1582C216.839 24.1582 218.453 24.138 220.391 24.0977C219.664 24.8242 219.099 25.4902 218.695 26.0957C218.493 26.4186 218.312 26.7012 218.15 26.9434C217.989 27.347 217.928 28.1745 217.969 29.4258C217.969 30.4753 218.049 32.0293 218.211 34.0879C218.372 36.1061 218.675 38.8711 219.119 42.3828L211.066 43.4727L211.43 35.2988C210.501 37.5189 209.331 39.1738 207.918 40.2637C206.546 41.3535 205.234 42.1204 203.982 42.5645C202.489 43.0892 200.935 43.3314 199.32 43.291C197.221 43.0892 195.122 42.6048 193.023 41.8379C190.924 41.071 189.068 39.9004 187.453 38.3262C185.839 36.7116 184.587 34.6328 183.699 32.0898C182.852 29.5469 182.589 26.3984 182.912 22.6445C183.275 18.8906 184.163 15.6211 185.576 12.8359C187.029 10.0104 188.826 7.66927 190.965 5.8125C193.104 3.95573 195.506 2.56315 198.17 1.63477C200.874 0.666016 203.639 0.141276 206.465 0.0605469ZM223.842 15.9238C224.891 16.1257 225.799 16.2871 226.566 16.4082C227.374 16.4889 228.06 16.5697 228.625 16.6504C229.271 16.7311 229.836 16.7917 230.32 16.832C230.805 16.8724 231.37 16.9128 232.016 16.9531C233.105 16.9935 234.639 16.9935 236.617 16.9531C235.447 16.8724 234.518 17.1751 233.832 17.8613C233.186 18.5072 232.702 19.2539 232.379 20.1016C231.975 21.1107 231.753 22.2812 231.713 23.6133C231.632 25.3893 231.673 27.0039 231.834 28.457C232.036 29.8698 232.379 31.0807 232.863 32.0898C233.388 33.0586 234.074 33.7852 234.922 34.2695C235.77 34.7135 236.859 34.8346 238.191 34.6328C239.523 34.431 240.533 33.9668 241.219 33.2402C241.945 32.4733 242.47 31.5449 242.793 30.4551C243.116 29.3249 243.298 28.0534 243.338 26.6406C243.419 25.2279 243.479 23.7546 243.52 22.2207C243.52 20.6868 243.499 19.597 243.459 18.9512C243.459 18.265 243.439 17.821 243.398 17.6191C243.358 17.4173 243.298 17.3366 243.217 17.377C243.136 17.377 243.035 17.276 242.914 17.0742C242.833 16.9128 242.712 16.7513 242.551 16.5898C242.43 16.4284 242.268 16.2467 242.066 16.0449C241.865 15.8027 241.643 15.5605 241.4 15.3184C242.45 15.3587 243.378 15.3991 244.186 15.4395C245.033 15.4395 245.74 15.4596 246.305 15.5C246.951 15.5404 247.516 15.5807 248 15.6211C248.444 15.6615 249.029 15.722 249.756 15.8027C250.361 15.8835 251.148 15.9642 252.117 16.0449C253.086 16.1257 254.236 16.2467 255.568 16.4082C254.64 16.61 253.893 16.9128 253.328 17.3164C252.763 17.7201 252.319 18.1237 251.996 18.5273C251.633 18.9714 251.37 19.4557 251.209 19.9805C251.088 20.6667 251.088 21.7161 251.209 23.1289C251.29 24.3802 251.492 26.0957 251.814 28.2754C252.137 30.4551 252.642 33.321 253.328 36.873L248.545 39.7188L247.576 31.666C246.406 33.6439 245.154 35.1777 243.822 36.2676C242.531 37.3171 241.32 38.084 240.189 38.5684C238.857 39.1335 237.566 39.4564 236.314 39.5371C234.66 39.5371 233.227 39.4362 232.016 39.2344C230.845 38.9922 229.836 38.6895 228.988 38.3262C228.141 37.9629 227.454 37.5592 226.93 37.1152C226.445 36.6309 226.082 36.1465 225.84 35.6621C225.275 34.653 224.972 33.3613 224.932 31.7871C224.891 30.1725 224.952 28.5781 225.113 27.0039C225.275 25.3893 225.456 23.916 225.658 22.584C225.86 21.252 225.921 20.3438 225.84 19.8594C225.759 19.4961 225.638 19.0924 225.477 18.6484C225.315 18.2852 225.113 17.8815 224.871 17.4375C224.629 16.9531 224.286 16.4486 223.842 15.9238ZM254.66 15.5605C255.952 15.3587 257.001 15.1973 257.809 15.0762C258.656 14.9147 259.342 14.7936 259.867 14.7129C260.473 14.5918 260.937 14.4909 261.26 14.4102C261.583 14.3294 262.047 14.2083 262.652 14.0469C263.177 13.8854 263.863 13.7038 264.711 13.502C265.559 13.2598 266.628 12.9368 267.92 12.5332C267.597 12.9368 267.335 13.3001 267.133 13.623C266.971 13.9056 266.81 14.1478 266.648 14.3496C266.487 14.5918 266.346 14.8138 266.225 15.0156C266.104 15.2174 265.982 15.5202 265.861 15.9238C265.781 16.2467 265.68 16.7109 265.559 17.3164C265.438 17.8815 265.337 18.6283 265.256 19.5566C267.436 18.1842 269.434 17.1549 271.25 16.4688C273.107 15.7826 274.721 15.2982 276.094 15.0156C277.708 14.6927 279.161 14.5716 280.453 14.6523C282.068 14.7734 283.561 15.1367 284.934 15.7422C286.346 16.3073 287.618 16.9935 288.748 17.8008C289.878 18.6081 290.867 19.4961 291.715 20.4648C292.562 21.4336 293.229 22.4023 293.713 23.3711C294.036 24.0169 294.238 24.9453 294.318 26.1562C294.439 27.3672 294.318 28.6589 293.955 30.0312C293.592 31.4036 292.946 32.7559 292.018 34.0879C291.13 35.3796 289.858 36.4089 288.203 37.1758C285.337 38.4674 282.492 39.194 279.666 39.3555C278.455 39.4362 277.204 39.3958 275.912 39.2344C274.661 39.0729 273.389 38.7298 272.098 38.2051C270.846 37.6803 269.635 36.9336 268.465 35.9648C267.294 34.9557 266.225 33.6641 265.256 32.0898C264.933 34.1484 264.691 35.9447 264.529 37.4785C264.408 38.972 264.327 40.2233 264.287 41.2324C264.247 42.403 264.247 43.3919 264.287 44.1992C264.368 45.0065 264.529 45.8743 264.771 46.8027C264.973 47.61 265.256 48.5384 265.619 49.5879C266.023 50.6777 266.527 51.8079 267.133 52.9785C266.891 52.8978 266.548 52.8372 266.104 52.7969C265.7 52.7969 265.276 52.8372 264.832 52.918C264.348 52.9987 263.803 53.0794 263.197 53.1602C262.632 53.2812 262.007 53.4225 261.32 53.584C260.755 53.7051 260.089 53.8464 259.322 54.0078C258.596 54.2096 257.849 54.4316 257.082 54.6738C257.526 54.1491 257.869 53.5436 258.111 52.8574C258.394 52.2116 258.616 51.6061 258.777 51.041C258.939 50.3548 259.08 49.6686 259.201 48.9824C259.242 48.377 259.302 47.2266 259.383 45.5312C259.504 43.8763 259.605 41.959 259.686 39.7793C259.766 37.5592 259.827 35.2383 259.867 32.8164C259.948 30.3945 259.988 28.1543 259.988 26.0957C260.029 23.9967 260.029 22.2207 259.988 20.7676C259.948 19.3145 259.867 18.4668 259.746 18.2246C259.585 17.9421 259.282 17.6393 258.838 17.3164C258.475 17.0339 257.95 16.7513 257.264 16.4688C256.618 16.1862 255.75 15.8835 254.66 15.5605ZM269.07 26.5801C268.788 27.5085 268.727 28.4167 268.889 29.3047C269.05 30.1927 269.454 31.0202 270.1 31.7871C270.786 32.554 271.734 33.2402 272.945 33.8457C274.197 34.4108 275.751 34.8346 277.607 35.1172C279.464 35.3997 280.877 35.3594 281.846 34.9961C282.814 34.6328 283.521 34.0677 283.965 33.3008C284.449 32.4935 284.772 31.5651 284.934 30.5156C285.095 29.4258 285.297 28.2956 285.539 27.125C285.781 25.9948 285.741 24.8444 285.418 23.6738C285.095 22.4629 284.631 21.373 284.025 20.4043C283.46 19.4355 282.814 18.6484 282.088 18.043C281.402 17.3971 280.796 17.0742 280.271 17.0742C279.02 17.0742 277.789 17.3971 276.578 18.043C275.367 18.6888 274.257 19.4961 273.248 20.4648C272.239 21.4336 271.351 22.4831 270.584 23.6133C269.857 24.7031 269.353 25.6921 269.07 26.5801ZM296.074 5.63086C297.285 5.75195 298.294 5.85286 299.102 5.93359C299.949 6.01432 300.635 6.07487 301.16 6.11523C301.766 6.1556 302.25 6.17578 302.613 6.17578C302.977 6.21615 303.461 6.21615 304.066 6.17578C304.591 6.13542 305.277 6.09505 306.125 6.05469C306.973 5.97396 308.042 5.85286 309.334 5.69141C309.051 6.09505 308.829 6.45833 308.668 6.78125C308.507 7.0638 308.365 7.32617 308.244 7.56836L307.881 8.29492C307.8 8.53711 307.719 8.7793 307.639 9.02148C307.558 9.22331 307.477 9.46549 307.396 9.74805C307.356 10.0306 307.316 10.3333 307.275 10.6562H316.6L315.752 15.5605L307.215 15.0762C307.013 17.1348 306.872 18.7292 306.791 19.8594C306.71 20.9896 306.63 21.8171 306.549 22.3418L306.428 23.4316C306.307 24.9655 306.186 26.6406 306.064 28.457C305.943 30.2331 305.903 31.888 305.943 33.4219C305.984 34.9557 306.125 36.2474 306.367 37.2969C306.609 38.306 307.033 38.8105 307.639 38.8105C308.244 38.8105 308.809 38.6491 309.334 38.3262C309.859 38.0033 310.303 37.6198 310.666 37.1758C311.07 36.7318 311.372 36.2878 311.574 35.8438C311.776 35.3594 311.877 34.9961 311.877 34.7539C311.877 34.5117 311.816 34.2292 311.695 33.9062C311.493 33.3008 311.13 32.5339 310.605 31.6055C311.776 31.888 312.805 32.1706 313.693 32.4531C314.137 32.6146 314.541 32.776 314.904 32.9375C315.308 33.099 315.772 33.2806 316.297 33.4824C316.741 33.6842 317.306 33.9264 317.992 34.209C318.678 34.4915 319.486 34.8346 320.414 35.2383C319.526 35.3997 318.88 35.6621 318.477 36.0254C318.234 36.1868 318.053 36.3685 317.932 36.5703C317.649 37.0143 317.326 37.6198 316.963 38.3867C316.6 39.1133 316.055 39.8398 315.328 40.5664C314.602 41.293 313.613 41.9388 312.361 42.5039C311.15 43.069 309.516 43.3919 307.457 43.4727C305.318 43.5534 303.683 43.1901 302.553 42.3828C301.463 41.5755 300.656 40.6471 300.131 39.5977C299.646 38.5078 299.364 37.4382 299.283 36.3887C299.202 35.3392 299.142 34.6328 299.102 34.2695C299.061 33.9062 299.061 32.998 299.102 31.5449C299.142 30.0918 299.202 28.4974 299.283 26.7617C299.364 24.9857 299.445 23.2904 299.525 21.6758C299.606 20.0208 299.646 18.8099 299.646 18.043C299.646 17.6393 299.667 17.2155 299.707 16.7715C299.707 16.4082 299.707 16.0247 299.707 15.6211C299.747 15.1771 299.768 14.7533 299.768 14.3496L290.988 14.2891L290.625 10.8379L299.465 11.0801C299.384 10.6361 299.283 10.2324 299.162 9.86914C299.081 9.46549 299.001 9.14258 298.92 8.90039C298.799 8.61784 298.678 8.37565 298.557 8.17383C298.395 7.97201 298.214 7.75 298.012 7.50781C297.81 7.30599 297.548 7.04362 297.225 6.7207C296.902 6.39779 296.518 6.03451 296.074 5.63086ZM322.473 19.2539C322.674 19.0117 322.796 18.5677 322.836 17.9219C322.917 17.2357 323.078 16.4688 323.32 15.6211C323.603 14.7734 324.067 13.8854 324.713 12.957C325.359 12.0286 326.408 11.1608 327.861 10.3535C329.274 9.54622 330.646 9.06185 331.979 8.90039C333.311 8.73893 334.582 8.79948 335.793 9.08203C337.004 9.36458 338.134 9.80859 339.184 10.4141C340.273 11.0195 341.262 11.6855 342.15 12.4121C342.756 12.8965 343.24 13.6029 343.604 14.5312C343.967 15.4193 344.249 16.4284 344.451 17.5586C344.653 18.6888 344.794 19.8796 344.875 21.1309C344.996 22.3418 345.077 23.5326 345.117 24.7031C345.158 25.8333 345.178 26.8828 345.178 27.8516C345.218 28.7799 345.299 29.5469 345.42 30.1523C345.581 31.0404 345.864 31.8073 346.268 32.4531C346.671 33.0586 347.115 33.5833 347.6 34.0273C348.084 34.431 348.568 34.7539 349.053 34.9961C349.537 35.2383 349.961 35.4199 350.324 35.541C350.566 35.6621 350.788 35.7428 350.99 35.7832C351.394 35.9447 351.676 35.9447 351.838 35.7832C351.596 36.3483 351.374 36.8327 351.172 37.2363C350.97 37.64 350.809 37.9831 350.688 38.2656C350.526 38.5885 350.385 38.8509 350.264 39.0527C350.143 39.2949 350.001 39.5169 349.84 39.7188C349.719 39.9206 349.557 40.1426 349.355 40.3848C349.154 40.627 348.952 40.8893 348.75 41.1719C348.225 40.9701 347.721 40.7279 347.236 40.4453C346.792 40.1628 346.389 39.9004 346.025 39.6582C345.581 39.3757 345.178 39.0931 344.814 38.8105C344.451 38.528 344.108 38.2051 343.785 37.8418C343.503 37.5189 343.2 37.1758 342.877 36.8125C342.594 36.4492 342.352 36.0456 342.15 35.6016C341.908 36.1263 341.323 36.873 340.395 37.8418C339.507 38.8105 338.336 39.6986 336.883 40.5059C335.43 41.2728 333.734 41.8177 331.797 42.1406C329.9 42.4635 327.801 42.2415 325.5 41.4746C324.491 41.1517 323.542 40.6875 322.654 40.082C321.766 39.4362 320.999 38.6693 320.354 37.7812C319.748 36.8932 319.304 35.8841 319.021 34.7539C318.779 33.5833 318.799 32.2917 319.082 30.8789C319.365 29.4661 319.869 28.2754 320.596 27.3066C321.322 26.3379 322.19 25.5508 323.199 24.9453C324.208 24.3398 325.339 23.8757 326.59 23.5527C327.841 23.2298 329.133 23.0078 330.465 22.8867C331.514 22.8464 332.564 22.9069 333.613 23.0684C334.501 23.2298 335.43 23.5326 336.398 23.9766C337.367 24.3802 338.195 25.0059 338.881 25.8535C338.84 23.7142 338.76 22.0189 338.639 20.7676C338.558 19.4759 338.477 18.487 338.396 17.8008C338.235 16.9935 338.094 16.4284 337.973 16.1055C337.771 15.8229 337.549 15.5 337.307 15.1367C337.105 14.7734 336.842 14.4505 336.52 14.168C336.197 13.8451 335.793 13.5827 335.309 13.3809C334.824 13.179 334.259 13.0983 333.613 13.1387C332.927 13.179 332.382 13.3607 331.979 13.6836C331.575 14.0065 331.252 14.39 331.01 14.834C330.808 15.2376 330.687 15.6816 330.646 16.166C330.606 16.6504 330.626 17.0742 330.707 17.4375C330.788 17.6797 330.909 17.9421 331.07 18.2246C331.232 18.4668 331.454 18.7292 331.736 19.0117C332.019 19.2943 332.402 19.5365 332.887 19.7383C331.958 19.8594 331.131 19.9603 330.404 20.041C329.678 20.0814 329.052 20.1419 328.527 20.2227C327.922 20.3034 327.397 20.3639 326.953 20.4043C326.509 20.4447 325.984 20.5254 325.379 20.6465C324.854 20.7272 324.208 20.8281 323.441 20.9492C322.674 21.0703 321.786 21.2318 320.777 21.4336C321.02 21.151 321.242 20.8887 321.443 20.6465C321.645 20.3639 321.827 20.1217 321.988 19.9199C322.15 19.6777 322.311 19.4557 322.473 19.2539ZM331.555 26.459C330.828 26.4993 330.102 26.681 329.375 27.0039C328.648 27.2865 328.003 27.7103 327.438 28.2754C326.872 28.8001 326.388 29.4258 325.984 30.1523C325.621 30.8385 325.439 31.6055 325.439 32.4531C325.439 33.3008 325.641 34.0475 326.045 34.6934C326.489 35.2988 327.054 35.8034 327.74 36.207C328.467 36.6107 329.234 36.8529 330.041 36.9336C330.889 37.0143 331.716 36.9336 332.523 36.6914C333.29 36.4089 334.017 35.9648 334.703 35.3594C335.389 34.7135 335.975 34.0273 336.459 33.3008C336.943 32.5339 337.286 31.7871 337.488 31.0605C337.69 30.2936 337.71 29.668 337.549 29.1836C337.226 28.1341 336.499 27.4076 335.369 27.0039C334.239 26.5599 332.967 26.3783 331.555 26.459Z" fill="black"/>
</svg>
