<svg width="123" height="97" viewBox="0 0 123 97" fill="none" xmlns="http://www.w3.org/2000/svg">
<path d="M69.3125 0.0172987C71.0497 -0.0956772 72.7778 0.346876 74.2462 1.28169L75.0133 1.77005C75.0293 1.7803 75.0315 1.80283 75.0181 1.81626C75.006 1.8285 75.0064 1.84871 75.0198 1.86006C76.3211 2.98365 77.1289 4.49542 77.5977 5.46047C78.2696 6.84292 78.847 8.43575 79.3288 9.92889C80.1405 12.4444 80.8855 15.3768 81.292 16.8763L81.4474 17.4355L81.4479 17.4374L81.4552 17.464L81.6093 18.0095C82.3864 20.7242 83.2448 23.266 84.1552 26.1836C84.7608 28.1253 85.311 30.08 85.8422 31.9612C86.3785 33.8609 86.8963 35.6895 87.4599 37.4863L87.6586 38.1104C88.1097 39.5137 88.6235 41.0307 89.1227 42.6106C90.0954 45.6884 92.1897 48.4819 94.9905 50.0866L104.01 55.1796L104.017 55.1835L104.023 55.187L104.031 55.1917C106.57 56.6415 110.347 58.5038 113.324 60.3739C113.672 60.5925 114.12 60.8246 114.796 61.1605C115.405 61.4626 116.233 61.8652 117.025 62.3215C118.47 63.1531 120.526 64.5535 121.714 66.9967L121.826 67.2366L121.828 67.2413L121.83 67.2465L121.931 67.479L121.933 67.485L121.936 67.4907C122.159 68.0314 122.277 68.6101 122.281 69.195L122.298 71.2599C122.298 71.3014 122.295 71.343 122.288 71.3841L122.24 71.6928C122.24 71.6932 122.24 71.6932 122.24 71.6932C122.24 71.6936 122.24 71.6936 122.24 71.6936C122.087 72.6607 121.775 73.9122 120.972 75.1122C120.119 76.3871 118.962 77.2351 117.711 77.7857C114.734 79.0957 111.041 79.9814 108.714 80.6944L108.629 80.7203L93.6741 85.425C89.1443 86.8531 84.5457 88.3631 79.8695 89.7604L79.7721 89.789C77.3219 90.5245 74.854 91.3617 72.2389 92.2245C69.6398 93.082 66.9299 93.9526 64.2039 94.6699L64.197 94.6725L64.1732 94.679C63.6702 94.8106 63.068 95.0106 62.2135 95.2941C61.4221 95.5564 60.4529 95.8768 59.4551 96.1417C57.7205 96.6015 54.9283 97.1859 52.2171 96.2759L51.9552 96.1833C49.6929 95.3413 47.463 94.0972 45.5059 92.9149C44.5128 92.3149 43.538 91.6985 42.6359 91.1284C41.7178 90.5479 40.8824 90.0202 40.0976 89.5496C40.0973 89.5492 40.097 89.5492 40.0968 89.5488C40.0965 89.5488 40.0962 89.5483 40.0959 89.5483L17.9468 76.2555C17.8191 76.1788 17.7168 76.0663 17.6524 75.9321L17.1596 74.9014C16.8058 74.1607 16.3747 73.2018 16.174 72.0521C16.1618 71.9815 16.1274 71.917 16.0749 71.8685C14.7262 70.627 13.869 69.143 13.299 67.8526L13.181 67.5785C12.4654 65.8764 12.0194 63.9942 11.7246 62.8609C11.2238 61.3561 10.7813 59.7899 10.3724 58.3242C9.9368 56.7627 9.54031 55.3225 9.10858 53.9675C8.76963 52.9039 8.42188 51.8463 8.06626 50.765C7.7128 49.6905 7.35129 48.5918 6.99792 47.4797L6.99757 47.478L6.98086 47.4248L6.97753 47.4148L6.97493 47.4049L6.95974 47.352C6.11905 44.4097 5.18517 41.4353 4.23905 38.3966C3.31362 35.4243 2.37885 32.3967 1.55772 29.4098C1.27033 28.5311 1.1647 28.2967 0.825608 27.2844C0.567239 26.5131 0.276023 25.561 0.119469 24.5135C-0.236821 22.1296 0.179413 19.7612 1.69799 17.2913C2.05128 16.7163 2.52792 16.2271 3.09344 15.8589L3.99378 15.2727C4.53678 14.8829 5.06236 14.6449 5.36452 14.5174C5.77672 14.3435 6.18607 14.2069 6.48585 14.1106C6.6426 14.0603 6.79736 14.0122 6.92965 13.9712C7.06926 13.928 7.18082 13.8934 7.28662 13.8596C7.39042 13.8265 7.46731 13.8007 7.52523 13.7803L7.58311 13.7591L7.59202 13.7554C7.94016 13.6072 8.30561 13.5034 8.67967 13.4464L8.6859 13.4455C13.0959 12.7731 17.1895 11.5846 22.0336 10.4884L22.035 10.488L44.612 5.38558L44.6133 5.38524L44.6198 5.38372L44.6284 5.3819L44.6583 5.37519L44.6618 5.37446C49.7206 4.23901 54.8872 3.16338 59.8745 2.07259C61.0737 1.81033 62.3234 1.43575 64.0741 0.981352C65.6108 0.582419 67.5009 0.13539 69.2744 0.0198943C69.2749 0.0198678 69.2753 0.0195806 69.2762 0.0195235C69.277 0.0194426 69.2783 0.0192921 69.2801 0.0191527C69.2831 0.01888 69.2883 0.0184519 69.2943 0.0180403H69.2969C69.2978 0.0180069 69.2987 0.017899 69.3021 0.0176696C69.3043 0.017515 69.3082 0.0175851 69.3125 0.0172987ZM7.74566 13.7106C7.74254 13.7111 7.73804 13.7117 7.73267 13.7128C7.72726 13.7138 7.72033 13.7154 7.71224 13.7172C7.70929 13.7179 7.706 13.7186 7.70258 13.7195C7.71306 13.7169 7.72228 13.7151 7.72968 13.7135C7.73869 13.7117 7.74596 13.7105 7.74973 13.7098L7.75345 13.7091C7.75328 13.7091 7.75284 13.709 7.75232 13.7091C7.7512 13.7093 7.74873 13.71 7.74566 13.7106ZM69.2775 0.0195373C69.2783 0.0194391 69.2788 0.0195706 69.2796 0.0195235C69.2788 0.0195924 69.2779 0.0194912 69.2775 0.0195373Z" fill="white"/>
<path d="M45.6342 9.82636C50.7004 8.68898 55.7774 7.63307 60.85 6.5237C63.4582 5.95323 66.9807 4.72759 69.5988 4.56439C70.3724 4.51183 71.1421 4.70815 71.7958 5.12446C74.1685 6.63231 76.1836 15.6366 77.0637 18.6899C77.9044 21.6968 78.8741 24.5653 79.8022 27.54C80.9701 31.284 81.9364 35.113 83.1117 38.8569C84.2294 42.4052 85.5333 45.9213 86.2952 49.5736C86.4147 50.1467 86.3506 50.5705 86.0454 51.0684C89.3527 51.5623 89.9133 52.4341 92.7436 54.0514L101.769 59.1474C104.782 60.8677 107.945 62.3764 110.897 64.2313C113.166 65.6564 116.624 66.5758 117.722 69.2308L117.736 70.9831C117.534 72.2615 117.084 73.0835 115.874 73.616C113.219 74.7839 110.153 75.4878 107.378 76.3384L92.302 81.0799C87.7017 82.5301 83.1974 84.0101 78.5632 85.395C73.4373 86.9278 68.1945 88.9113 63.0154 90.2719C60.3124 90.981 56.2605 92.9247 53.5484 91.9143C49.8419 90.5342 45.8009 87.656 42.4442 85.6426L21.2747 72.9381C20.627 71.5822 20.4863 70.9827 20.7145 69.5212C20.4851 69.413 20.2603 69.2948 20.0409 69.1671C17.5135 67.7005 16.7986 64.2209 16.1031 61.5794C15.1404 58.7219 14.3794 55.4912 13.4536 52.5856C12.7605 50.4104 12.0348 48.2749 11.3442 46.1014C9.62662 40.0898 7.53274 33.9662 5.92008 28.0787C4.86434 24.8302 3.64603 22.8271 5.58316 19.6765L6.59362 19.0186C7.12279 18.581 8.56949 18.2927 9.37411 17.9498C13.9901 17.2461 18.5356 15.952 23.041 14.9325L45.6342 9.82636Z" fill="#95B2B8"/>
<path d="M3.97033 17.424C4.05583 17.7033 3.2977 19.8659 3.6444 21.0262C4.34288 23.3644 5.17469 25.6518 5.91533 27.9686L10.6016 43.099C12.6897 49.8595 14.6209 56.987 16.87 63.7241C17.2093 64.7405 18.5673 65.579 19.4502 66.1578C18.8596 66.6656 18.7685 66.8366 18.3437 67.4942C24.6894 71.6049 30.9079 75.307 37.2759 79.2818L44.6637 83.799C46.2858 84.7899 47.8849 86.0496 49.7056 86.6414C54.2826 88.1296 59.102 85.7825 63.4107 84.4592L79.7715 79.474L98.576 73.6737C102.199 72.5702 105.85 71.5222 109.404 70.2131C111.267 69.5274 113.734 69.1811 115.099 67.6361L115.113 69.3885C114.91 70.6668 114.46 71.4889 113.251 72.0213C110.595 73.1893 107.53 73.8932 104.754 74.7438L89.6787 79.4852C85.0784 80.9354 80.5741 82.4155 75.9399 83.8003C70.814 85.3327 65.5712 87.3167 60.3921 88.6772C57.6891 89.3863 53.6372 91.33 50.9251 90.3196C47.2186 88.9396 43.1776 86.0613 39.8209 84.0479L18.6514 71.3434C18.0037 69.9876 17.863 69.3881 18.0912 67.9266C17.8618 67.818 17.637 67.7002 17.4177 67.5725C14.8902 66.1059 14.1753 62.6263 13.4798 59.9848C12.5171 57.1273 11.7561 53.8966 10.8303 50.991C10.1372 48.8158 9.41152 46.6803 8.72088 44.5068C7.00332 38.4952 4.90945 32.3716 3.29679 26.4841C2.24104 23.2356 1.02274 21.2325 2.95987 18.0819L3.97033 17.424Z" fill="#6A8E96"/>
<path d="M68.9102 8.858C69.3864 8.81216 70.2296 8.76125 70.5145 9.18972C71.8781 11.2414 72.4196 14.8567 73.1404 17.1951L79.7511 39.2019C80.171 40.6058 81.9922 46.0034 81.6182 47.4125C81.426 47.8562 80.6775 48.1943 80.2633 48.3047C72.5396 50.3648 64.7531 52.3293 57.0186 54.3548C45.8261 57.3093 34.5922 60.1053 23.3204 62.7416C22.281 62.3724 21.8934 61.707 21.5672 60.6971C20.2505 56.6214 19.1754 52.418 17.9047 48.332L13.3638 33.5083C12.4765 30.6578 11.4321 27.8699 10.6933 24.9618C10.365 23.6698 10.0289 22.2475 11.8191 21.7836C18.8385 19.9648 25.9293 18.5345 33.0101 16.9842L68.9102 8.858Z" fill="#396371"/>
<path d="M87.4009 70.2839C87.7646 70.2272 88.1321 70.2008 88.5001 70.2047C90.0182 70.2259 94.8164 72.6938 94.7758 74.0687C93.6368 74.8284 89.0083 75.8063 87.5048 76.3007C83.6755 77.5595 79.898 78.5595 75.9812 79.5058C72.6765 79.9513 71.6267 78.3929 68.883 76.7093C68.5138 76.4829 68.4103 76.241 68.3579 75.8457C69.564 75.0631 75.3548 73.7566 77.0998 73.2073C80.4374 72.1562 84.0131 71.1666 87.4009 70.2839Z" fill="#6A8E96"/>
<path d="M81.6345 65.2326C83.0332 65.0967 86.1271 66.5858 86.4076 67.7884C85.7258 68.5559 70.6797 72.1195 68.6052 73.0862C67.865 73.4307 62.2304 74.8502 60.8633 75.2697C58.9893 75.577 57.8932 74.4597 56.524 73.3217C56.2422 73.0875 56.2595 72.803 56.2946 72.4914C56.6712 72.1944 57.6253 71.8329 58.0868 71.7173C65.9893 69.736 73.7879 67.401 81.6345 65.2326Z" fill="#6A8E96"/>
<path d="M38.4624 66.575C39.9255 66.3048 43.534 68.249 42.927 69.5359C41.9457 70.2822 36.8958 71.3485 35.5076 71.5528C35.1944 71.593 34.8772 71.5896 34.5649 71.5433C33.6924 71.4169 30.6933 70.0173 30.9144 68.9208C31.9974 68.0819 36.9271 66.9278 38.4624 66.575Z" fill="#6A8E96"/>
<path d="M90.6994 57.6661C92.6669 57.5362 94.998 58.863 96.3928 60.1829C94.5491 60.8708 90.7431 61.7686 88.7431 62.2106C87.26 62.424 84.167 61.6552 83.5964 60.3054L83.7544 59.9388C84.7397 59.0916 89.1838 58.0756 90.6994 57.6661Z" fill="#6A8E96"/>
<path d="M41.9178 70.7473C43.7753 70.6101 45.9778 72.6265 47.2895 73.8364C45.6094 74.5663 43.5554 74.9992 41.7629 75.3741C40.3046 75.4515 37.3356 74.5806 36.7537 73.1373C36.829 71.4785 40.5586 70.9707 41.9178 70.7473Z" fill="#6A8E96"/>
<path d="M57.4646 66.5806C59.0875 66.3988 61.5243 68.4199 62.5507 69.5978C61.2343 70.1913 58.7811 70.6545 57.2793 70.9796C55.2465 71.277 53.5015 69.9511 52.0798 68.6515C53.5712 67.1615 55.4062 67.0191 57.4646 66.5806Z" fill="#6A8E96"/>
<path d="M65.1537 64.4948C67.0303 64.4558 68.5415 65.9735 70.0393 67.1324C68.2359 68.1665 67.0528 68.4579 65.078 68.8817C63.0126 69.1128 61.4849 67.5562 60.104 66.2389C61.7066 65.2064 63.3213 64.9515 65.1537 64.4948Z" fill="#6A8E96"/>
<path d="M77.1491 56.5017C79.1357 56.2987 80.9889 57.9463 82.3707 59.1818C80.8512 59.7597 78.8058 60.2324 77.1967 60.6484C75.9803 60.8328 73.324 59.748 72.6046 58.7471C72.2829 57.0619 75.8638 56.7528 77.1491 56.5017Z" fill="#6A8E96"/>
<path d="M46.4988 64.5087C47.8377 64.3208 49.7892 66.2476 51.0771 67.1693C49.1429 68.219 47.9736 68.4757 45.8538 68.8844C45.501 68.9225 44.9274 69.006 44.6174 68.8463C43.4006 68.2195 42.2066 67.1255 41.2124 66.1987C42.8111 65.2606 44.6979 64.8749 46.4988 64.5087Z" fill="#6A8E96"/>
<path d="M72.9674 62.4295C73.9388 62.381 74.0379 62.4598 74.87 62.8667C80.0954 65.4216 75.4033 66.2683 72.4154 66.6986C71.3903 66.5476 68.9635 65.6757 68.2488 64.8645C68.0618 64.6519 68.1605 64.4195 68.2103 64.1779C68.957 63.3043 71.8457 62.6351 72.9674 62.4295Z" fill="#6A8E96"/>
<path d="M80.5219 60.3592C81.5327 60.2202 85.6236 62.1284 85.3318 63.2236C84.5006 63.9587 82.3193 64.2712 81.1713 64.5149C79.7695 64.9851 76.9717 63.9526 76.4666 62.5306C76.6137 60.8393 79.1444 60.6484 80.5219 60.3592Z" fill="#6A8E96"/>
<path d="M96.7617 60.9353C98.0824 60.8219 101.85 61.7556 101.362 63.3604C100.707 64.0162 97.6829 64.6768 96.6184 64.9582C95.4941 65.3742 92.9223 64.0906 92.2158 63.2504C92.0756 62.7396 92.0587 62.9508 92.2881 62.4591C93.2297 61.6245 95.4543 61.247 96.7617 60.9353Z" fill="#6A8E96"/>
<path d="M62.0796 60.5045C63.1445 60.4118 66.4704 61.9573 66.373 63.1204C65.6748 63.7966 62.6246 64.3689 61.4709 64.6711C59.4238 64.6221 58.0035 63.4217 56.668 61.9992C58.5056 61.204 60.1238 60.9036 62.0796 60.5045Z" fill="#6A8E96"/>
<path d="M85.243 54.2665C86.3175 54.176 89.3798 55.5296 89.8521 56.4837L89.7668 56.7339C88.7971 57.2339 86.0504 58.046 84.9175 58.372C83.7695 58.4369 80.0405 57.0409 80.1721 55.8625C80.9548 55.1296 84.0751 54.5236 85.243 54.2665Z" fill="#6A8E96"/>
<path d="M49.5593 68.9605C51.4844 68.7787 53.1489 70.1847 54.4056 71.5085C53.2861 72.1332 50.8541 73.0236 49.5896 73.1925C49.3065 73.2124 48.7173 73.2522 48.4948 73.0994C47.6437 72.5146 45.2412 71.3852 44.9624 70.4834C45.6078 69.7445 48.5013 69.1744 49.5593 68.9605Z" fill="#6A8E96"/>
<path d="M53.7419 62.5756C54.0025 62.547 54.2644 62.5288 54.5263 62.5223C55.5713 62.4933 58.6054 64.1483 58.6132 65.1461C57.8747 65.8214 55.2903 66.2669 54.173 66.5201L52.7003 66.7361C51.77 66.2076 49.6116 65.279 49.5947 64.1422C50.1796 63.3345 52.7003 62.8202 53.7419 62.5756Z" fill="#6A8E96"/>
<path d="M70.0015 58.4427C71.3786 58.2682 73.4595 60.1466 74.4036 61.0833C72.9413 61.7638 70.4634 62.298 68.8634 62.537C67.4842 62.5699 65.5734 60.9374 64.512 60.0946C66.1405 59.2093 68.1743 58.7375 70.0015 58.4427Z" fill="#6A8E96"/>
<path d="M89.4447 63.0202C90.4127 62.8839 93.1326 64.9072 94.2693 65.573C92.7269 66.1128 90.7776 66.6223 89.1915 67.0158C87.4915 67.079 85.6084 65.7353 84.5266 64.5276C86.3396 63.7575 87.5171 63.4376 89.4447 63.0202Z" fill="#6A8E96"/>
<path d="M46.8785 74.925C47.8664 75.0116 50.6114 76.6544 50.9278 77.6197L50.7988 77.8531C49.8326 78.3379 47.8699 78.773 46.7906 78.9258C46.4989 78.9167 46.2088 78.8803 45.924 78.8167C44.8478 78.579 42.2126 77.5141 42.7142 76.1007C43.6292 75.1834 45.6223 75.0406 46.8785 74.925Z" fill="#6A8E96"/>
<path d="M52.6535 73.2446C54.5444 72.9156 56.5595 74.5009 57.8076 75.7507C56.6496 76.2965 55.2881 76.5952 54.0427 76.9073C53.8803 76.9398 53.2224 77.0658 53.0821 77.0506C51.767 76.9069 49.5505 75.3671 48.6384 74.5074C49.8116 73.9663 51.3817 73.5905 52.6535 73.2446Z" fill="#6A8E96"/>
</svg>
