<svg width="44" height="52" viewBox="0 0 44 52" fill="none" xmlns="http://www.w3.org/2000/svg">
<path d="M17.0237 0C17.0907 0.0110968 17.1572 0.0255246 17.2229 0.043194C18.534 0.385415 19.1653 2.91008 19.6752 4.02434C20.8369 6.56287 21.7697 9.17991 22.7147 11.8027C23.3144 13.4674 24.1316 15.0231 24.8079 16.6529C24.9506 16.9967 25.0708 17.3602 25.2602 17.6814C25.8606 17.9058 26.5104 18.0355 27.1285 18.2095C31.2143 19.3609 35.4869 19.6736 39.6269 20.5878C40.3501 20.7475 41.1525 20.5539 41.8614 20.7172C42.4941 20.8631 43.0228 21.5695 43.2775 22.1338C43.3781 22.3547 43.562 22.5414 43.5076 22.8002C43.1902 23.1484 41.2416 23.4446 40.6844 23.5595C38.7372 23.9555 36.8028 24.4109 34.8836 24.9255C33.5552 25.2849 31.8338 25.833 30.5234 26.0947C30.0653 26.1864 29.6015 26.2477 29.1353 26.278C28.5808 26.3118 27.8324 26.2956 27.3294 26.4441L27.2658 26.4632C26.9703 26.9496 26.7272 27.8308 26.5677 28.3883C25.7055 31.4026 25.2847 34.5203 24.6556 37.575C23.9261 41.1182 23.1201 44.3863 22.6662 47.9897C22.5198 49.048 22.5095 50.1084 22.4033 51.1673C22.3901 51.2986 22.3661 51.3351 22.2674 51.401C22.1459 51.4028 22.0114 51.3695 21.9087 51.3054C20.4146 50.3747 20.0913 48.0372 19.8291 46.4635C19.3701 43.7089 19.2522 40.9504 18.9866 38.1863C18.6389 34.5671 17.9608 30.9933 17.5593 27.3828C17.5177 27.0081 17.5029 26.0357 17.0483 25.9908C15.9638 25.8841 14.7871 25.9878 13.6915 26.0282L7.01717 26.2078C6.02664 26.2486 5.03576 26.2804 4.04471 26.3031C3.42298 26.3202 2.7781 26.3636 2.15842 26.3098C1.91796 26.289 1.68129 26.208 1.46358 26.1068C0.880058 25.8355 0.26177 25.2415 0.0510542 24.6232C-0.0136032 24.4335 -0.0259836 24.2349 0.0677964 24.0525C0.692907 22.837 8.40935 21.2651 10.1175 20.7774C11.5072 20.3806 12.8401 19.8498 14.2134 19.4086C14.7759 19.2278 15.3567 19.1307 15.9212 18.9572C16.0851 18.4977 16.2235 16.9295 16.281 16.3791C16.5314 14.0109 16.7142 11.6358 16.8291 9.25703C16.9235 7.32944 16.9906 5.68424 16.8253 3.74947C16.7612 2.99879 16.8221 0.674361 17.0237 0ZM7.51964 23.8977C8.79106 24.0636 10.3802 23.8789 11.6593 23.8415C12.6299 23.8131 13.6311 23.7524 14.5933 23.7269C16.0375 23.6886 17.5022 23.3112 18.4986 24.6676C18.746 25.0046 18.8942 25.3567 18.979 25.7741C19.2014 27.1222 19.3003 28.5041 19.4932 29.8576C19.9289 32.9138 20.4292 35.9848 20.7375 39.057C20.8186 39.8799 20.8893 40.7037 20.9493 41.5284C20.9931 42.2017 21.0252 43.1769 21.1643 43.8087C21.3877 43.1763 21.5394 42.0791 21.6627 41.3889C22.046 39.3129 22.5132 37.2535 22.9186 35.182C23.2385 33.5467 24.6444 24.8029 25.4992 24.2267C26.0772 23.837 27.6621 24.0484 28.4104 23.9132C29.7694 23.6674 31.1052 23.1813 32.4275 22.7863C33.1152 22.5807 33.8407 22.4375 34.5135 22.1926C34.6773 22.1329 34.9068 22.0644 35.0101 21.9188C34.9018 21.7924 33.4795 21.6178 33.1888 21.5792C31.3344 21.3328 29.5589 20.8079 27.7626 20.3093C26.6591 20.0032 25.3845 19.8849 24.5977 18.9681C23.9806 18.249 23.8137 17.3711 23.4599 16.5222C22.6586 14.7248 21.8413 12.9482 21.0997 11.1228C20.706 10.1542 20.3688 9.14001 20.0049 8.16997C19.8339 7.714 18.9175 4.99862 18.632 4.85002L18.6256 4.89802C18.5728 5.31648 18.596 6.06194 18.6022 6.504C18.6213 7.33555 18.6261 8.1673 18.6167 8.99911C18.5663 12.4928 18.4209 16.0874 17.9028 19.5399C17.6172 21.4433 17.7882 20.8971 16.0544 21.4212C14.3696 21.9306 12.6805 22.6285 10.9614 23.0597C9.88382 23.35 8.53314 23.5303 7.51964 23.8977Z" fill="black"/>
<path d="M29.2648 2.9063C30.6572 2.99785 30.6946 5.27057 30.7398 6.30336C31.8716 6.36956 34.7171 5.72937 35.5376 6.3575C35.8396 6.58847 36.2275 7.08213 36.2649 7.4707C36.2809 7.63533 36.2136 7.74776 36.0667 7.8191C35.4206 8.13241 31.3013 8.08895 30.9992 8.4655C30.776 8.74372 31.0257 10.8364 31.0608 11.2853C31.0706 11.6873 31.2348 13.0202 31.0104 13.2646C30.7316 13.3116 30.4408 13.0011 30.2502 12.8235C29.5877 12.188 29.6079 11.6298 29.5731 10.8067C29.5582 10.4521 29.5165 8.97385 29.4036 8.73036C29.1325 8.4899 27.7864 9.05525 27.3716 9.03886C27.1397 9.02978 27.0909 9.01054 26.8704 8.95158C26.8388 8.92077 26.8078 8.8896 26.7772 8.85789C24.9794 6.99156 28.2542 7.16184 29.192 6.57953C29.273 6.52916 29.3239 6.3237 29.3218 6.23451C29.2951 5.12682 29.2935 4.01429 29.2648 2.9063Z" fill="black"/>
</svg>
