<svg width="187" height="106" viewBox="0 0 187 106" fill="none" xmlns="http://www.w3.org/2000/svg">
<path d="M139.697 45.9217C141.106 45.8993 142.634 45.999 143.749 46.2044C147.994 46.9869 152.683 48.6376 156.232 49.6254C160.865 50.88 165.482 52.1836 170.083 53.5353C172.08 54.1131 174.472 54.7608 176.691 55.5328L177.132 55.6889L177.145 55.6936L177.158 55.6984C179.098 56.4106 180.401 57.4921 181.474 58.6504L181.597 58.788C182.192 59.4832 182.519 60.2674 182.693 60.7447C182.915 61.3553 183.08 62.021 183.179 62.667C183.274 63.294 183.33 64.0533 183.24 64.8174C183.176 65.3645 182.942 66.8985 181.546 68.0044V68.0049C181.458 68.0742 181.464 68.2033 181.556 68.2684C182.069 68.6319 182.408 69.0176 182.566 69.2018C182.882 69.5727 183.149 69.9653 183.357 70.3077C183.481 70.5119 183.627 70.7685 183.771 71.0569C184.024 71.5654 184.392 72.022 184.875 72.3549C185.869 73.0417 186.455 74.1301 186.455 75.2873V76.9636C186.455 77.9906 185.992 78.9706 185.18 79.6611C182.751 81.7279 179.024 83.6756 176.929 84.9492C171.994 87.9716 167.041 90.9691 162.071 93.9418V93.9423L151.151 100.525L151.145 100.529L151.139 100.532C149.426 101.557 147.097 103.14 144.643 104.221H144.642L144.641 104.221C143.409 104.764 141.867 105.186 140.434 105.457C139.025 105.722 137.352 105.91 135.88 105.787C133.227 105.564 130.518 104.825 128.105 104.04C125.776 103.281 123.205 102.295 121.395 101.664L121.389 101.662L121.384 101.66L106.304 96.3509L106.299 96.3493L106.295 96.3478C102.972 95.1683 98.8728 93.927 95.2491 92.483L95.2486 92.4825C93.9993 91.9845 92.006 91.0771 90.5642 89.6066C89.6988 88.724 88.935 87.5018 88.9147 85.9731C88.8943 84.4825 89.5955 83.3798 90.1052 82.7533C90.2797 82.5396 90.366 82.2724 90.3327 82.0052C90.0945 80.0992 90.2023 78.1848 90.353 76.8128C90.7369 73.3195 92.881 71.0432 94.9957 69.5103C96.0276 68.7626 97.1262 68.1356 98.0864 67.6086C99.12 67.0413 99.9205 66.626 100.713 66.1519L101.656 65.5921C106.401 62.7919 111.607 59.9933 116.191 57.345C120.689 54.7115 125.217 52.1247 129.777 49.5854C130.825 48.9964 133.419 47.4016 135 46.7142L135.143 46.6543C136.631 46.0505 138.49 45.9409 139.697 45.9217ZM74.8784 0.898241C77.8405 -0.283193 80.8827 -0.101309 83.3372 0.327706C85.5738 0.718527 88.1102 1.49702 89.6847 1.91262L89.9861 1.99087L89.9906 1.99197L105.509 5.93155L127.526 11.4144L127.534 11.4163L127.542 11.4185C131.07 12.3122 134.912 13.2158 138.595 14.3179L138.596 14.3181L138.596 14.3183C139.681 14.6431 141.523 15.2211 143.02 16.3361C143.822 16.9332 144.645 17.7679 145.179 18.9088C145.585 19.7782 145.766 20.7019 145.739 21.6435C145.734 21.8147 145.743 21.9862 145.775 22.1547C145.834 22.4652 145.9 22.8087 145.968 23.1458C146.062 23.6162 146.293 24.0512 146.598 24.4352C146.974 24.9082 147.473 25.603 147.814 26.4691L147.879 26.6448L147.88 26.6462C148.711 28.9699 147.863 30.9524 146.902 32.2267C146.027 33.3857 144.85 34.2547 144.229 34.7133C142.782 35.7839 141.099 36.9015 139.807 37.8119C135.632 40.7746 131.426 43.6994 127.191 46.5859L102.69 63.7734L102.678 63.7819L102.665 63.7904L88.1797 73.7888L88.1717 73.7941L83.4055 77.0662L83.3863 77.0789C82.3369 77.7906 80.6066 79.0055 78.9786 79.7717C75.2742 81.5152 70.5328 82.2052 66.5089 81.748C62.8626 81.3342 58.7383 79.896 55.9019 78.9642C52.4625 77.8393 49.0334 76.6869 45.6152 75.5064L26.1852 69.069L26.1735 69.0647L26.1621 69.061C20.4839 67.1414 13.9229 65.2116 7.95594 63.02L7.38019 62.8072C6.60262 62.5173 5.58006 62.0606 4.61497 61.5315C3.77356 61.0696 2.48889 60.2955 1.61384 59.2721C0.387458 57.8435 -0.176437 56.0132 0.0484655 54.1919L0.0490494 54.1866L0.0499251 54.1808C0.228531 52.7726 0.89189 51.6017 1.3602 50.877C1.43435 50.7623 1.50157 50.6441 1.55779 50.5207C1.56541 50.504 1.57338 50.4868 1.58156 50.4691C1.59436 50.4415 1.59629 50.4106 1.58786 50.3815C1.36654 49.6172 1.19579 48.5481 1.4197 47.4596L1.42175 47.45L1.42379 47.4401C1.8411 45.4695 3.17646 43.9162 4.2048 42.9281C5.31689 41.8596 6.57626 40.9763 7.57055 40.3696L9.16746 39.3998C12.8998 37.1429 16.6746 34.9267 20.4258 32.7272C24.7224 30.2079 28.9863 27.7113 33.1759 25.169L33.1896 25.1606L33.2037 25.1524L59.7854 9.3219C63.2143 7.26671 66.6794 5.26403 70.1783 3.31446L70.1912 3.30707L70.2042 3.29996C71.3146 2.69217 73.0302 1.68842 74.5922 1.017L74.8784 0.898241Z" fill="white"/>
<path d="M5.99096 50.2979C5.46761 49.7814 5.14006 48.6063 5.2854 47.8984C5.67494 46.0553 8.058 44.2048 9.70962 43.1951C18.0843 38.0751 26.7477 33.171 35.129 28.0754L61.5359 12.3186C64.9061 10.2948 68.3113 8.32269 71.7497 6.40285C73.021 5.70556 74.4476 4.86529 75.7697 4.29592C79.7179 2.59552 84.5801 4.49214 88.4437 5.46999L103.873 9.39445L125.736 14.8499C129.334 15.7628 132.999 16.6252 136.547 17.6888C138.721 18.341 141.364 19.3434 140.906 21.9111C141.048 22.6321 141.431 24.7668 141.643 25.3924C142.232 26.0705 142.985 26.8255 143.281 27.6542C143.9 29.3895 142.213 30.7302 140.924 31.6849C139.512 32.7316 138.032 33.7075 136.594 34.7231C132.46 37.6629 128.294 40.5651 124.1 43.4292L99.751 60.543L85.366 70.4912L80.633 73.7464C79.469 74.5369 78.0543 75.5254 76.7853 76.1238C73.8255 77.5197 69.8863 78.1054 66.5974 77.7313C63.4936 77.3784 59.87 76.1238 56.8718 75.1375C53.4654 74.021 50.0694 72.8776 46.6841 71.7061L27.3759 65.2957C21.2938 63.2358 14.8743 61.3674 8.84093 59.1149C7.65713 58.6726 5.47956 57.6191 4.69558 56.6936C4.12544 56.0285 3.86329 55.1761 3.96784 54.3273C4.06885 53.5294 4.52136 52.807 4.97231 52.1373C5.21975 51.6249 5.60831 50.6404 5.99096 50.2979Z" fill="#FEF8DC"/>
<path d="M5.99096 50.2981C6.10838 50.3478 6.46651 50.6052 6.61774 50.694C8.62991 51.8753 10.7836 52.4552 13.0084 53.1919L19.514 55.3788L40.5237 62.2215C44.1908 63.4237 47.9052 64.5909 51.5351 65.8682C54.4224 66.9085 57.3353 67.8858 60.2708 68.7986C61.7052 69.2499 63.1527 69.7685 64.6148 70.0738C66.7413 70.5172 70.1448 70.5759 72.1844 69.8351C74.6209 68.951 77.3707 66.8508 79.4458 65.382L83.9789 62.2289L100.653 50.5828L127.04 32.2949L134.485 27.2515C136.533 25.8795 139.86 24.0584 140.906 21.9114C141.048 22.6323 141.431 24.767 141.643 25.3927C142.232 26.0707 142.985 26.8257 143.281 27.6545C143.9 29.3897 142.213 30.7305 140.924 31.6851C139.512 32.7319 138.032 33.7078 136.594 34.7233C132.46 37.6632 128.294 40.5653 124.1 43.4295L99.751 60.5431L85.366 70.4913L80.633 73.747C79.469 74.537 78.0543 75.5254 76.7853 76.1238C73.8255 77.5197 69.8863 78.106 66.5974 77.7319C63.4936 77.3784 59.87 76.1244 56.8718 75.1375C53.4654 74.0216 50.0694 72.8776 46.6841 71.7061L27.3759 65.2963C21.2938 63.2363 14.8743 61.368 8.84093 59.115C7.65713 58.6731 5.47956 57.6191 4.69558 56.6942C4.12544 56.0285 3.86329 55.1761 3.96784 54.3279C4.06885 53.53 4.52136 52.8072 4.97231 52.1375C5.21975 51.6251 5.60831 50.6406 5.99096 50.2981Z" fill="#FEEDC5"/>
<path d="M141.643 25.393C142.232 26.071 142.985 26.8261 143.281 27.6548C143.9 29.3901 142.213 30.7308 140.924 31.6854C139.512 32.7323 138.032 33.7081 136.594 34.7237C132.46 37.6635 128.294 40.5657 124.1 43.4298L99.751 60.5436L85.366 70.4917L80.633 73.7469C79.469 74.5375 78.0543 75.5259 76.7853 76.1243C73.8255 77.5202 69.8863 78.1059 66.5974 77.7318C63.4936 77.3789 59.87 76.1249 56.8718 75.138C53.4654 74.0216 50.0694 72.8781 46.6841 71.7066L27.3759 65.2967C21.2938 63.2363 14.8743 61.3679 8.84093 59.1154C7.65713 58.6736 5.47956 57.6196 4.69558 56.6941C4.12544 56.029 3.86329 55.1766 3.96784 54.3279C4.06885 53.5299 4.52136 52.8076 4.97231 52.1378C5.61407 53.3135 6.49451 54.4623 7.77077 55.093C11.9105 57.1381 16.4893 58.4053 20.896 59.8557L42.3938 66.8619L57.254 71.8304C59.7943 72.6749 63.0324 73.9231 65.601 74.3634C68.1775 74.7068 72.338 74.3999 74.674 73.2993C78.7137 71.396 82.711 68.1387 86.3691 65.6163L114.911 45.6299C119.724 42.2473 124.565 38.8987 129.432 35.5846C131.422 34.2259 133.401 32.8516 135.367 31.4619C138.015 29.6007 140.37 28.3632 141.643 25.393Z" fill="#FDDBA4"/>
<path d="M78.2839 8.59697C80.1197 8.40379 84.3147 9.71058 86.2465 10.1905C90.6554 11.2815 95.0558 12.4018 99.4477 13.5515L119.625 18.8247C122.788 19.6659 125.968 20.4633 129.113 21.3611C132.614 22.3605 131.337 23.6209 129.196 25.1534C124.022 28.8571 118.762 32.4495 113.527 36.0759C105.895 41.4335 98.2227 46.7417 90.5114 52.0002L79.7454 59.3715C78.1789 60.4488 76.6084 61.5219 75.03 62.5844C73.2168 63.8046 70.8853 64.4506 68.6464 64.193C67.0776 63.9326 63.7193 62.7622 62.0325 62.2193L50.3611 58.4577L24.4702 49.9831C14.0388 46.5193 11.6972 47.2114 22.3215 40.7359C26.2995 38.3218 30.306 35.9493 34.3401 33.6186L55.6738 21.0593L68.7712 13.3334C71.053 11.9883 73.3523 10.5971 75.6702 9.30627C76.4983 8.84508 77.3417 8.68475 78.2839 8.59697Z" fill="#3B6472"/>
<path d="M96.4761 25.1799C98.7867 24.0499 100.901 22.927 103.593 23.6829C104.947 24.0629 106.18 25.0991 105.621 26.4897C104.977 28.0978 102.662 29.6844 101.157 30.4942C100.34 30.8919 99.4161 31.3672 98.5834 31.71L80.7203 40.8416C76.4244 43.048 71.9929 45.4287 67.6602 47.5287C67.2402 47.7619 66.2562 48.2595 65.8097 48.4272C63.9406 49.6681 60.4129 50.1424 58.2028 50.2072C58.1661 49.595 58.1401 49.4185 57.9928 48.822C57.4356 48.1961 57.019 48.0229 56.2102 47.7968C57.7043 46.4906 59.8901 44.5265 61.5205 43.4395C62.0613 43.0153 62.75 42.5589 63.3845 42.2711C65.8204 41.1341 68.7531 39.5097 71.1845 38.2453L84.5433 31.3458C87.8655 29.6108 91.2571 27.7394 94.6454 26.1269C95.1472 25.8532 95.9759 25.3739 96.4761 25.1799Z" fill="#5F8C99"/>
<path d="M96.4762 25.1799C98.7868 24.0499 100.902 22.927 103.593 23.6829C104.947 24.0629 106.18 25.0991 105.621 26.4897C104.977 28.0978 102.662 29.6844 101.157 30.4942C100.34 30.8919 99.4163 31.3672 98.5836 31.71C98.4278 30.9412 98.4735 30.2748 98.2025 29.4736C97.5494 27.5408 96.3521 27.0007 94.6455 26.1269C95.1474 25.8532 95.9761 25.3739 96.4762 25.1799Z" fill="#5F8C99"/>
<path d="M94.6455 26.126C95.1474 25.8523 95.9761 25.373 96.4762 25.1791C99.4185 26.4869 99.3897 26.7023 100.734 29.7216C100.835 29.947 100.968 30.347 101.157 30.4933C100.34 30.891 99.4163 31.3663 98.5836 31.7091C98.4278 30.9404 98.4735 30.2739 98.2025 29.4727C97.5494 27.5399 96.3521 26.9998 94.6455 26.126Z" fill="#487E8C"/>
<path d="M63.3843 42.2705C65.5052 42.7805 66.8053 44.2582 67.3975 46.196C67.4934 46.5103 67.5279 47.3174 67.66 47.5281C67.24 47.7614 66.256 48.2589 65.8095 48.4267C65.1428 46.164 64.1972 44.0233 61.5203 43.439C62.0611 43.0147 62.7498 42.5584 63.3843 42.2705Z" fill="#487E8C"/>
<path d="M94.0533 83.0734C93.3985 81.2421 93.4414 78.7049 93.6514 76.79C94.1166 72.5485 98.6976 70.9516 102.177 68.8663C107.154 65.8825 112.427 63.0676 117.497 60.1335C121.949 57.5212 126.433 54.9549 130.948 52.4361C132.315 51.6662 134.446 50.3367 135.774 49.7583C137.163 49.153 140.559 49.2364 142.093 49.5196C146.099 50.2593 150.195 51.7441 154.158 52.8479C158.738 54.0909 163.302 55.3814 167.851 56.7206C170.073 57.3646 172.442 58.0043 174.607 58.7842C175.777 59.2144 176.586 59.8557 177.39 60.7251C178.069 61.4585 178.638 64.2861 177.882 64.8867C176.146 66.264 173.937 67.3789 172.029 68.6049C171.735 68.7229 171.183 69.0605 170.966 69.2631C171.665 69.7298 172.409 70.2463 173.122 70.6839C173.541 71.0812 174.848 71.6532 175.44 71.7807C175.375 71.6178 175.206 71.5569 175.093 71.3193C175.801 70.9072 176.509 71.3294 177.292 71.477C177.498 71.3537 177.497 71.3294 177.602 71.1093L177.938 70.7373C178.472 70.9781 179.274 72.4231 179.377 72.9851C179.406 73.1496 179.388 73.5121 179.375 73.6893C180.124 74.0867 180.692 74.419 181.389 74.901V76.5688C179.284 78.3626 176.169 79.9632 173.689 81.4728C168.792 84.4778 163.877 87.4584 158.946 90.4141L148.101 96.9642C146.107 98.1595 144.221 99.4664 142.085 100.409C140.373 101.164 137.237 101.796 135.369 101.638C131.045 101.274 126.023 99.159 121.985 97.7489L107.01 92.4666C103.409 91.1855 99.7251 90.0887 96.185 88.6748C95.0424 88.2182 93.7107 87.561 92.8639 86.6959C91.0941 84.8884 93.626 83.9296 94.0533 83.0734Z" fill="#FDAC58"/>
<path d="M98.0223 76.291C108.902 79.4933 119.709 83.4136 130.491 86.9191C132.462 87.5598 133.548 87.8805 135.653 87.9265C135.886 88.062 136.45 88.0154 136.759 88.0122C136.797 89.2991 137.073 93.7919 136.786 95.2084C136.778 95.2508 136.643 95.3169 136.587 95.3428C132.842 95.3756 131.645 94.6862 128.174 93.5311L118.323 90.1732C115.814 89.3187 113.253 88.544 110.735 87.7032C108.637 86.9841 106.547 86.2428 104.466 85.4814C103.389 85.0951 99.6131 83.8707 98.9798 83.2199C97.7768 81.9817 98.0246 78.0614 98.0223 76.291Z" fill="#FEEDC5"/>
<path d="M135.653 87.9266C137.154 87.9017 139.027 87.8488 140.388 87.216C143.687 85.6831 146.993 83.5454 150.085 81.6961L166.033 72.1834C166.73 71.759 170.63 69.3219 170.967 69.2631C171.665 69.7298 172.41 70.2463 173.122 70.6838C173.541 71.0812 174.849 71.6532 175.44 71.7807L175.64 71.8538C175.742 71.6193 175.532 71.5299 175.91 71.3479C176.255 71.1818 176.939 71.4585 177.102 71.7463C177.208 72.5437 175.226 73.7242 174.559 74.1216C172.224 75.5153 169.881 76.9006 167.551 78.3028L154.742 86.1064C150.274 88.8071 145.89 91.6787 141.311 94.21C140.159 94.8476 138.676 95.1418 137.357 95.2836C137.102 95.3106 136.845 95.3307 136.588 95.3424C136.644 95.3164 136.778 95.2503 136.786 95.208C137.073 93.7915 136.798 89.2986 136.759 88.0118C136.451 88.015 135.886 88.0615 135.653 87.9266Z" fill="#FDDBA4"/>
<path d="M94.0533 83.0734C94.6873 83.7248 94.9052 85.3767 96.1285 85.9376C97.8712 86.7366 99.6771 87.3901 101.49 88.034C104.815 89.214 108.15 90.3638 111.498 91.4834C117.912 93.6423 124.274 95.9763 130.729 98.0658C134.622 99.3256 138.488 99.5018 142.266 97.7414C144.528 96.6869 146.871 94.9476 149.013 93.6449C151.667 92.0305 154.323 90.3923 156.978 88.7801L171.677 79.8378C173.745 78.5705 175.996 77.3075 177.976 75.9291C178.82 75.3423 179.047 74.6036 179.375 73.6898C180.124 74.0872 180.692 74.419 181.389 74.9015V76.5688C179.284 78.3626 176.169 79.9632 173.689 81.4728C168.792 84.4777 163.877 87.4583 158.946 90.414L148.101 96.9641C146.107 98.16 144.221 99.4669 142.085 100.409C140.373 101.164 137.237 101.796 135.369 101.638C131.045 101.274 126.023 99.1595 121.985 97.7488L107.01 92.4665C103.409 91.1855 99.7251 90.0891 96.185 88.6748C95.0424 88.2187 93.7107 87.561 92.8639 86.6958C91.0941 84.8883 93.626 83.9301 94.0533 83.0734Z" fill="#FDDBA4"/>
<path d="M170.967 69.2631C171.183 69.0604 171.735 68.7223 172.029 68.6049L172.098 68.7112C172.232 68.7054 172.727 68.68 172.816 68.7324C173.991 69.4144 175.285 69.8848 176.59 70.2981C176.952 70.4129 177.583 70.6727 177.938 70.7373L177.602 71.1092C177.383 71.0717 177.04 70.7235 176.937 70.706C176.224 70.587 173.399 69.879 172.866 70.0033L172.831 70.1081L173.168 70.4568L173.122 70.6838C172.409 70.2462 171.665 69.7298 170.967 69.2631Z" fill="#FDDBA4" fill-opacity="0.243137"/>
<path d="M173.123 70.6849L173.168 70.4579L172.831 70.1092L172.866 70.0045C173.399 69.8801 176.224 70.5881 176.936 70.7071C177.04 70.7246 177.383 71.0722 177.602 71.1103C177.498 71.3299 177.499 71.3548 177.292 71.4776C176.51 71.3305 175.802 70.9082 175.093 71.3199C175.206 71.558 175.374 71.6183 175.44 71.7818C174.848 71.6543 173.541 71.0818 173.123 70.6849Z" fill="#FDDBA4" fill-opacity="0.435294"/>
<path d="M58.8606 48.4259C59.3828 49.1316 59.5199 49.84 58.7053 50.3689C57.8913 50.8979 55.4905 51.6351 54.9687 50.9294C54.4468 50.2237 55.7983 48.526 56.6127 47.9971C57.4267 47.4682 58.339 47.7202 58.8606 48.4259Z" fill="#223D46"/>
<path d="M61.5205 43.4393C64.1974 44.0236 65.143 46.1642 65.8097 48.427C63.9406 49.6678 60.4129 50.1421 58.2028 50.207C58.1661 49.5947 58.1401 49.4183 57.9928 48.8217C57.4356 48.1959 57.019 48.0226 56.2102 47.7965C57.7043 46.4903 59.8901 44.5263 61.5205 43.4393Z" fill="#5F8C99"/>
<path d="M34.8811 55.2866C35.8446 55.3824 38.7043 56.4428 39.5858 56.9544C40.2071 57.3148 40.7357 57.7529 41.4658 57.9661C40.8116 58.1333 40.0825 58.3831 39.4376 58.5926C36.909 59.2895 34.1645 58.7567 33.0747 56.3052C33.6242 55.747 34.1303 55.5226 34.8811 55.2866Z" fill="#FEEDC5"/>
</svg>
