<svg width="74" height="74" viewBox="0 0 74 74" fill="none" xmlns="http://www.w3.org/2000/svg">
<mask id="mask0_712_11" style="mask-type:luminance" maskUnits="userSpaceOnUse" x="2" y="2" width="70" height="70">
<path d="M2.32656 24.1563L24.1567 71.4014L71.4018 49.5712L49.5716 2.32616L2.32656 24.1563Z" fill="white"/>
</mask>
<g mask="url(#mask0_712_11)">
<path d="M56.6376 40.7039C57.842 40.8274 58.0483 38.0545 57.5539 28.8901C57.0244 19.1895 56.5545 17.069 55.1452 17.4226C53.2135 17.9327 54.6944 40.4542 56.6376 40.7039Z" fill="black"/>
<path d="M14.132 46.49C14.0204 50.1117 14.6269 50.5966 22.5046 53.2043C30.6383 55.9062 32.2201 56.1101 32.8528 54.628C33.9887 51.9355 32.0641 50.5297 22.1703 46.686C14.8692 43.8543 14.2144 43.8169 14.132 46.49Z" fill="black"/>
<path d="M27.2006 26.8509C27.0859 29.454 27.574 30.4185 30.5664 33.5834C39.4791 42.9382 45.1034 50.3272 45.2252 45.2558C45.2889 43.1863 43.8114 41.2764 33.75 29.9874C28.1586 23.7732 27.3769 23.3693 27.2006 26.8509Z" fill="black"/>
</g>
</svg>
